<svg xmlns="http://www.w3.org/2000/svg" width="299" height="9" viewBox="0 0 299 9" fill="none">
  <path d="M285.626 3.46688C285.539 3.26592 285.53 3.05624 285.626 2.89897C285.731 2.73297 285.906 2.70676 286.019 2.85529C286.343 3.2834 286.657 3.73772 286.963 4.20952C287.007 4.27942 286.998 4.48037 286.963 4.60269C286.928 4.76869 286.849 4.73374 286.736 4.63763C286.439 4.40174 286.124 4.20078 285.81 3.9911C285.853 4.84732 285.626 4.96964 285.102 4.61142C284.962 4.51532 284.499 4.84732 284.499 5.01333C284.482 5.53755 284.822 5.24923 285.014 5.29291C285.687 5.47639 286.351 5.39775 287.041 5.31912C287.994 5.20554 288.964 4.9609 289.916 5.24049C291.034 5.57249 292.126 5.05701 293.227 5.17933C293.315 5.18807 293.402 5.08322 293.489 5.0308C293.42 4.9609 293.341 4.80364 293.28 4.82111C292.572 5.07449 291.925 4.19205 291.148 4.74248C290.685 5.06575 289.96 5.03954 289.671 3.91246C289.532 3.37077 289.2 3.47561 288.929 3.6853C288.719 3.8513 288.562 4.20078 288.343 4.3231C288.046 4.48037 287.828 4.20952 287.968 3.77267C288.195 3.07371 288.046 3.06497 287.644 3.30087C287.513 3.37951 287.373 3.46688 287.242 3.48435C287.181 3.48435 287.076 3.33582 287.059 3.23971C287.041 3.12613 287.085 2.89897 287.129 2.8815C287.365 2.80286 287.618 2.68055 287.845 2.7417C288.885 3.01255 289.951 2.58444 290.991 3.06497C291.261 3.18729 291.628 3.19603 291.864 3.02129C292.546 2.51454 293.149 2.77665 293.848 2.99508C294.477 3.18729 295.149 2.45338 295.857 2.65433C295.91 2.67181 295.962 2.6456 296.006 2.67181C296.408 3.02129 296.801 3.22224 297.238 2.7417C297.683 2.23496 298.059 3.1174 298.487 2.94266C298.609 2.89023 298.749 2.70676 298.801 2.53202C298.898 2.19127 298.67 2.23496 298.557 2.2437C296.923 2.49707 295.289 1.40494 293.647 2.20001C293.393 2.32233 293.044 2.22622 292.782 2.07769C292.441 1.88548 292.1 1.75442 291.768 1.83306C290.257 2.19127 288.789 1.00304 287.277 1.61463C286.587 1.19526 285.914 1.99906 285.163 1.536C284.42 1.08167 283.573 1.02051 282.743 1.45737C282.437 1.62337 282.053 1.57095 281.721 1.34378C281.546 1.22147 281.38 1.09915 281.17 1.16904C279.868 1.55347 278.54 1.37 277.23 1.4661C275.718 1.57968 274.198 1.64084 272.66 1.2302C271.638 0.959356 270.537 1.21273 269.471 1.17778C268.554 1.15157 267.637 1.14283 266.728 1.38747C266.536 1.43989 266.309 1.64084 266.169 1.55347C265.129 0.854512 263.993 1.18652 262.91 0.915671C261.818 0.636087 260.63 0.566191 259.52 1.07294C258.838 1.37873 258.122 1.35252 257.458 1.19525C255.536 0.758405 253.649 0.679772 251.744 1.28263C251.325 1.41368 250.844 1.34378 250.425 1.17778C250.084 1.03799 249.761 0.88946 249.411 0.941882C247.847 1.18652 246.283 0.854512 244.719 0.97683C243.881 1.03799 243.033 0.968093 242.186 0.97683C241.373 0.97683 240.552 1.0642 239.739 1.0642C238.385 1.07294 237.04 0.810827 235.685 0.863249C235.257 0.880723 234.803 1.31757 234.418 0.994304C233.711 0.400188 233.082 0.845775 232.426 1.08167C231.693 1.34378 231.063 0.496295 230.251 0.828301C229.351 1.19525 228.276 1.36999 227.403 1.00304C226.468 0.601139 225.594 0.749668 224.694 0.740931C223.751 0.732194 222.798 0.871986 221.863 0.723457C220.937 0.566191 220.037 0.793353 219.12 0.784616C217.879 0.767142 216.63 0.924408 215.398 0.80209C214.175 0.679772 212.969 0.906934 211.755 0.871986C211.274 0.854512 210.776 1.19525 210.331 1.0642C208.251 0.443873 206.172 1.50979 204.101 0.941882C202.991 1.51852 201.795 1.07294 200.685 1.48358C200.37 1.59716 200.152 1.536 199.872 1.44863C199.462 1.31757 199.086 1.08167 198.605 1.32631C198.177 1.54474 197.627 1.57095 197.164 1.19525C196.937 1.01178 196.666 0.924408 196.456 1.11662C195.853 1.65832 195.198 1.47484 194.569 1.44863C193.791 1.41368 193.023 1.55347 192.219 1.22147C191.747 1.02051 191.1 1.50979 190.498 1.49231C189.405 1.44863 188.313 1.44863 187.221 1.51852C186.164 1.58842 185.107 1.4661 184.041 1.51852C180.284 1.71074 176.51 1.38747 172.761 2.07769C172.569 2.11264 172.36 2.12138 172.167 2.05148C170.665 1.536 169.136 1.84179 167.615 1.72821C166.427 1.63211 165.23 1.7719 164.042 1.71948C162.845 1.66705 161.639 1.69326 160.442 1.42242C159.918 1.3001 159.341 1.19525 158.817 1.49231C158.075 1.91169 157.236 1.90295 156.581 1.65832C155.917 1.41368 155.427 2.11264 154.868 1.78063C154.3 1.43989 153.724 1.38747 153.129 1.45737C152.736 1.50105 152.361 1.45737 151.976 1.72821C151.504 2.06022 150.989 2.01653 150.438 1.92916C149.713 1.80685 148.971 1.96411 148.237 2.02527C147.477 2.08643 146.69 1.868 145.913 1.94664C145.668 1.97285 145.432 2.09517 145.196 2.18254C144.462 2.45338 143.702 2.49707 143.003 2.19127C142.505 1.98159 142.033 1.92916 141.544 1.98159C140.566 2.07769 139.561 1.76316 138.608 2.34854C138.416 2.47086 138.11 2.36601 137.892 2.22622C137.56 2.01653 137.219 1.99032 136.87 1.99032C135.332 2.0078 133.786 1.99032 132.248 2.06022C130.693 2.13011 129.129 1.75442 127.574 2.05148C127.242 2.11264 126.875 2.20001 126.551 1.9379C126.316 1.74569 126.106 1.81558 125.852 1.88548C124.114 2.3398 122.349 2.09517 120.602 2.20875C119.064 2.30485 117.509 2.03401 115.997 2.31359C114.809 2.53202 113.682 2.79413 112.511 2.31359C112.144 2.16506 111.707 2.12138 111.34 2.4097C110.965 2.70676 110.58 2.68055 110.187 2.68928C104.324 2.7417 98.462 2.84655 92.5994 2.82034C91.3326 2.82034 90.0307 3.20477 88.8163 2.82034C87.8378 2.50581 86.8942 3.2834 85.968 2.65433C84.3517 3.23971 82.7091 2.76792 81.0841 2.94266C79.5725 3.10866 78.0873 2.67181 76.5845 2.73297C75.7283 2.76792 74.872 2.95139 74.0246 2.61939C73.8848 2.56696 73.7188 2.59318 73.579 2.6456C72.8887 2.90771 72.2247 2.89897 71.4996 2.76792C70.7307 2.62812 69.9182 2.63686 69.1144 2.75044C68.328 2.86402 67.5067 3.16108 66.7029 2.68055C66.5631 2.59318 66.3273 2.79413 66.1525 2.91644C65.9166 3.08245 65.672 3.16108 65.4448 2.96887C64.8856 2.48833 64.2828 2.67181 63.6974 2.69802C62.3432 2.7417 60.9715 2.71549 59.6434 3.01255C59.093 3.13487 58.6998 2.75918 58.2193 2.77665C57.3893 2.8116 56.5593 2.98634 55.7467 3.05624C55.1963 3.09992 54.6022 3.47561 54.043 3.17856C53.4926 2.89023 52.916 3.33582 52.3655 2.94266C51.7627 2.52328 51.2647 3.39698 50.6443 3.27466C50.0065 3.14361 49.3338 3.39698 48.7135 3.18729C48.0582 2.96887 47.4728 3.32708 46.8437 3.29214C45.6555 3.23098 44.4585 3.2834 43.2703 3.31835C42.1345 3.35329 40.9899 2.68055 39.8541 3.31835C39.7668 3.36203 39.6444 3.35329 39.5571 3.29214C38.7533 2.68055 37.897 3.05624 37.067 2.94266C35.4245 2.70676 33.8431 3.45814 32.2092 3.4494C30.9336 3.44067 29.6406 3.15234 28.3912 3.84257C28.1291 3.98236 27.7971 3.9212 27.5 3.86004C26.6787 3.69404 25.8312 3.74646 25.0973 4.12215C24.6779 4.33184 24.3197 3.74646 23.9965 4.227C23.446 3.74646 22.8344 3.95615 22.2578 3.9911C20.8075 4.06973 19.3659 4.29689 17.9068 4.38426C16.4652 4.47163 15.0148 4.33184 13.5907 4.52405C12.1491 4.72501 10.6638 4.05226 9.2484 4.89974C9.09987 4.98711 8.8465 4.8648 8.68049 4.73374C8.34849 4.48037 7.99901 4.57648 7.65826 4.52405C6.19918 4.27942 4.75758 5.07449 3.28976 4.60269C3.20239 4.57648 3.08881 4.63763 3.01018 4.70753C2.54712 5.12691 2.03163 5.12691 1.57731 4.84732C1.13172 4.56774 0.8434 5.08322 0.458972 5.10943C0.188125 5.12691 0.458972 5.34533 0.546342 5.41523C0.677397 5.52007 0.860874 5.72976 0.939507 5.67734C1.59478 5.16185 2.27627 5.67734 2.90533 5.54628C3.41208 5.44144 3.69166 5.38902 3.96251 6.08798C4.07609 6.38504 4.61779 6.18408 4.58284 6.06177C4.41683 5.4327 4.61779 5.39775 4.95853 5.34533C5.43033 5.2667 5.83223 5.52881 6.24287 5.77345C6.59235 5.9744 6.49624 6.28019 6.38266 6.62093C6.34771 6.71704 6.34771 6.93547 6.38266 6.96168C6.52245 7.05779 6.67098 7.04905 6.74962 6.82189C6.83699 6.57725 6.8632 6.26272 7.11657 6.25398C7.18647 5.93945 6.70593 5.7385 7.00299 5.42396C7.15152 5.2667 7.36994 5.45891 7.49226 5.69481C7.57963 5.85208 7.64079 6.03556 7.71069 6.2103C8.08638 6.32388 8.33975 5.9045 8.65428 5.74723C9.61535 5.25796 10.5153 4.98712 11.2929 6.35009C11.6161 6.90926 11.8957 6.24524 12.1928 6.14914L12.1753 6.18408C12.2452 5.91324 11.6336 5.4327 12.2889 5.34533C12.5335 5.31038 12.8218 5.21428 13.0053 5.48512C13.5732 6.33261 14.0887 6.38504 14.6304 5.46765C14.7789 5.21428 15.041 5.27544 15.1284 5.55502C15.574 7.04031 16.3865 6.7083 17.2078 6.55978C17.6709 6.47241 18.0466 6.46367 17.6796 5.60744C17.6184 5.45891 17.6359 5.3366 17.767 5.31912C17.8543 5.31038 18.0116 5.36281 18.0291 5.4327C18.1689 6.04429 18.265 6.62967 18.8591 6.62967C19.0338 6.62967 19.0775 7.00536 18.929 7.30242C18.8766 7.40727 18.1776 7.38105 18.8242 7.78296C19.8988 8.45571 20.9735 7.80043 22.0481 7.73927C22.118 7.73927 22.1879 7.59948 22.2578 7.52958C22.1704 7.45969 22.0831 7.40727 22.0044 7.32863C21.7598 7.07526 21.3142 7.24126 21.2705 7.15389C20.9647 6.55978 21.5064 6.60346 21.6375 6.3064C21.6462 6.28893 21.585 6.21903 21.5763 6.16661C21.5588 5.98313 20.8511 6.06177 21.4715 5.65113C21.7336 5.47639 22.0132 5.3366 22.3015 5.24923C22.616 5.15312 22.8956 5.21428 22.9393 5.81713C22.9568 6.00934 23.0267 6.2103 23.1053 6.3763C23.3674 6.93547 23.3761 6.95294 22.9043 7.09273C22.8257 7.11894 22.7121 6.99663 22.6859 7.19758C22.6684 7.31116 22.7121 7.55579 22.7471 7.56453C23.3499 7.70432 23.8567 8.49065 24.5731 7.92275C24.9313 7.64316 25.4381 7.77422 25.8837 7.71306C26.5127 7.63443 27.1593 7.62569 27.7796 7.59074C28.2951 7.55579 28.8892 7.76548 29.4484 7.85285C29.9988 7.94022 30.5492 7.49464 30.9599 7.77422C31.5452 8.18486 31.9908 7.70432 32.4888 7.70432C33.0742 7.70432 33.6771 7.47716 34.2537 7.85285C34.4372 7.97517 34.6032 8.07128 34.8129 7.93148C36.0623 7.13642 37.3641 7.96643 38.6572 7.78296C39.3561 7.67811 40.1599 7.84412 40.8851 8.0538C41.6714 8.28097 42.3267 7.47716 43.1567 7.87906C43.8731 8.21981 44.7294 7.97517 45.5244 7.98391C45.6206 7.98391 45.7341 7.94896 45.804 7.87033C46.1972 7.45095 46.5379 8.00138 46.9136 8.01886C47.3854 8.03633 47.8048 7.33737 48.163 7.66938C48.6261 8.09749 49.2115 7.32863 49.6046 8.18486C49.7444 8.49065 50.1463 8.1936 50.4259 8.16738C51.4481 8.0538 52.4267 7.12768 53.5013 7.87906C53.6324 7.96643 53.8945 7.59948 54.043 7.66938C54.7332 8.01012 55.4147 7.084 56.0787 7.66938C56.7602 8.27223 57.4679 7.90527 58.1582 7.84412C58.4203 7.8179 58.6037 7.52958 58.9532 7.74801C59.46 8.08001 60.1065 7.68685 60.6045 8.43823C60.8754 8.84013 60.8928 7.50337 61.3559 7.94896C61.7316 8.29844 62.0811 8.24602 62.4742 7.93148C62.8936 7.582 63.3567 8.13244 63.7411 8.01012C64.2129 7.86159 64.5624 7.61695 64.842 8.42076C64.9031 8.5955 65.1041 8.38581 65.174 8.21981C65.4011 7.68685 65.7681 7.84412 66.1001 7.76548C66.8952 7.57327 67.699 8.44697 68.494 7.76548C68.5727 7.69559 68.7998 7.82664 68.8959 7.9577C69.4376 8.75276 70.1278 8.46444 70.6958 8.33339C72.05 8.01885 73.378 7.38979 74.7148 8.42076C74.8196 8.49939 74.9944 8.39455 75.1342 8.36834C75.7632 8.26349 76.3835 8.35086 77.0301 8.01012C77.6504 7.68685 78.4455 8.03633 79.1619 8.07128C79.3017 8.07128 79.4502 7.99264 79.5813 7.92275C79.7036 7.86159 79.7822 7.84412 79.9395 7.94896C80.6297 8.41202 81.2064 8.38581 81.818 8.01886C82.4995 7.60822 83.4081 7.79169 84.0197 8.49065C84.1333 8.62171 84.2381 8.84887 84.3866 8.68287C84.7885 8.21107 85.3914 8.66539 85.7583 8.02759C85.8545 7.86159 86.0467 7.52085 86.1952 7.9577C86.3874 8.53434 86.6495 8.16738 86.9029 8.22854C87.2611 8.30718 87.5669 7.86159 87.8465 8.08875C88.327 8.48192 88.7289 8.37707 89.2444 8.22854C89.7075 8.08875 90.2579 8.51686 90.7734 8.64792C90.8957 8.68287 91.0355 8.53434 91.1666 8.47318C91.7257 8.20233 92.2936 7.83538 92.8178 8.5955C92.914 8.73529 93.0188 8.71782 93.0537 8.5256C93.2023 7.71306 93.4906 8.06254 93.8313 8.25475C94.0935 8.40328 94.4167 8.38581 94.705 8.3596C96.435 8.21107 98.1649 7.73927 99.9036 8.24602C100.026 8.28097 100.201 8.17612 100.305 8.04507C100.786 7.416 101.319 7.77422 101.808 7.94022C102.088 8.03633 102.332 8.32465 102.647 8.25475C102.918 8.19359 103.136 7.66064 103.451 8.01012C103.896 8.49939 104.001 7.93149 104.246 7.61695C104.351 7.4859 104.429 8.13244 104.866 7.99264C105.504 7.79169 106.247 7.62569 106.919 8.1237C107.077 8.23728 107.356 8.27223 107.487 8.14991C108.046 7.63443 108.483 7.78296 108.938 8.44697C109.139 8.73529 109.392 8.54308 109.593 8.28097C109.724 8.11496 109.803 7.74801 110.065 7.98391C110.606 8.47318 111.096 7.90527 111.602 7.86159C112.013 7.8179 112.485 7.14515 112.817 7.70432C113.28 8.48192 113.699 7.32863 114.136 7.86159C114.634 8.46444 115.027 8.17612 115.333 7.416C115.377 7.31116 115.63 7.30242 115.752 7.37232C116.163 7.59948 116.565 7.96643 117.002 7.46842C117.579 7.98391 118.199 7.43348 118.775 7.61695C119.623 7.87906 119.606 7.91401 120.977 7.69559C121.694 7.58201 122.445 7.82664 123.144 7.43348C123.537 7.94022 124.096 7.21505 124.332 7.56453C124.926 8.45571 125.433 8.0538 126.036 7.73053C126.35 7.56453 126.682 6.97915 126.98 7.26747C127.783 8.03633 128.718 6.99663 129.478 7.80043C129.644 7.97517 129.749 7.80043 129.871 7.73927C130.518 7.42474 131.322 8.35086 131.864 7.20631C131.907 7.11021 132.169 7.13642 132.283 7.22379C132.65 7.52958 132.964 7.68685 133.375 7.29368C133.891 6.80441 134.074 7.92275 134.528 7.92275C134.782 7.92275 135.018 7.89654 135.21 7.60822C135.559 7.05779 135.952 6.98789 136.407 7.39853C136.678 7.64316 137.018 7.61695 137.272 7.45095C137.656 7.19758 137.944 7.31116 138.346 7.43348C138.993 7.62569 139.779 7.98391 140.347 7.7218C141.09 7.38979 141.859 7.84412 142.523 7.32863C142.837 7.084 143.038 7.23252 143.335 7.33737C143.728 7.4859 144.104 7.86159 144.576 7.62569C144.934 7.45095 145.415 8.03633 145.72 7.43348C146.044 6.81315 146.297 8.08001 146.725 7.38979C147.031 6.89178 148.577 7.18884 149.154 7.58201C149.399 7.74801 149.643 7.8878 149.853 7.73053C150.692 7.13642 151.6 6.91799 152.492 7.0141C153.47 7.11894 154.422 6.83062 155.392 6.90052C155.855 6.93547 156.231 7.02284 156.607 7.50337C157.157 8.21981 157.297 6.44619 157.786 6.96168C158.59 7.80043 159.647 6.15787 160.364 7.59074C160.364 7.59948 160.468 7.55579 160.486 7.50337C160.853 6.50735 161.499 7.67811 161.936 7.11894C162.443 6.46367 163.055 7.25874 163.605 6.9442C164.024 6.7083 164.164 7.56453 164.479 7.55579C164.802 7.55579 164.933 6.81315 165.344 6.87431C165.588 6.90926 165.868 6.85683 166.06 7.02284C166.392 7.30242 166.611 6.67336 166.881 6.90926C167.144 7.14515 167.467 7.47716 167.703 7.20631C168.183 6.63841 168.515 6.87431 168.839 7.43348C169.205 8.08001 169.904 6.81315 170.184 7.93148C170.219 7.8878 170.254 7.84411 170.28 7.79169C170.665 6.88304 171.145 7.16263 171.643 7.57327C171.783 7.68685 171.888 8.14117 172.106 7.76548C172.709 6.71704 173.391 7.20631 174.072 7.53832C174.203 7.59948 174.456 7.58201 174.404 7.416C174.177 6.62967 174.526 6.6122 174.719 7.03157C175.077 7.8179 175.251 7.77422 175.479 6.97915C176.029 7.45095 176.545 6.49862 177.095 6.89178C177.759 7.37232 178.458 7.22379 179.131 7.02284C179.437 6.92673 179.471 7.084 179.655 7.3199C179.961 7.71306 180.057 6.88305 180.336 6.85683C180.371 6.85683 180.424 6.93547 180.441 6.99663C180.633 7.71306 180.913 7.60822 181.21 7.16263C181.472 6.7782 181.822 6.45493 182.128 6.80441C182.556 7.30242 182.888 6.66462 183.202 6.7782C183.543 6.90052 183.927 6.89178 184.268 7.37232C184.591 7.8179 184.853 6.7782 185.247 6.71704C185.386 6.69083 185.57 6.65588 185.683 6.75199C186.225 7.20631 186.741 6.81315 187.274 6.71704C187.71 6.63841 188.243 6.48114 188.593 6.74325C189.353 7.31116 190.017 7.58201 190.751 6.76073C190.934 6.55978 191.127 6.73452 191.293 6.89178C191.572 7.14515 191.93 7.17137 192.149 6.96168C192.664 6.46367 193.084 6.83062 193.512 7.13642C193.687 7.25874 193.861 7.46842 194.062 7.33737C194.77 6.87431 195.583 7.10147 196.273 6.75199C197.155 6.3064 197.968 6.34135 198.78 6.8481C199.086 7.04031 199.558 6.28893 199.706 7.20631C199.706 7.20631 199.794 7.20631 199.829 7.18884C200.86 6.26272 201.952 6.01808 203.14 6.48988C203.463 6.6122 203.856 6.59472 204.171 6.43746C204.905 6.0705 205.586 6.06177 206.224 6.76946C206.364 6.91799 206.582 6.92673 206.617 6.78694C206.845 5.74723 207.325 6.53356 207.666 6.51609C208.251 6.48114 208.863 6.25398 209.431 6.63841C209.85 6.92673 210.2 7.38979 210.601 6.52483C210.724 6.25398 211.134 7.07526 211.396 6.68209C211.886 5.94819 212.366 6.00934 212.987 6.35009C213.423 6.58599 213.965 6.3064 214.411 6.69083C214.926 6.0705 215.608 6.65588 216.123 6.27145C216.988 5.64239 217.827 6.04429 218.605 6.39377C219.548 6.82189 220.404 6.89178 221.322 6.39377C221.89 6.07924 222.519 5.82587 223.104 6.48988C223.471 6.90926 223.707 6.47241 224.013 6.22777C224.275 6.01808 224.878 5.9744 224.904 6.28019C224.974 7.52958 225.358 6.38504 225.498 6.50735C226.031 7.02284 226.503 5.86955 227.044 6.47241C227.56 7.04905 228.145 6.31514 228.704 6.60346C228.993 6.74325 229.438 6.1404 229.578 7.00536C229.945 6.47241 230.33 7.084 230.653 6.98789C231.212 6.83062 231.701 5.45891 232.295 6.93547C232.374 6.85683 232.488 6.81315 232.54 6.7083C232.855 6.06177 233.178 6.28019 233.554 6.6122C233.842 6.87431 234.183 7.04031 234.497 6.66462C234.96 6.10545 235.467 6.28019 235.991 6.42872C236.463 6.55978 236.917 6.49862 237.337 6.11419C237.476 5.98313 237.573 5.93945 237.808 6.11419C238.726 6.78694 239.355 6.76946 240.517 6.3763C240.77 6.28893 241.067 6.22777 241.303 6.34135C242.107 6.75199 243.042 5.92197 243.776 6.93547C243.846 7.03157 244.082 6.97915 244.204 6.89178C244.772 6.46367 245.497 6.98789 245.969 6.46367C246.554 5.81713 247.201 6.92673 247.734 6.1404C247.839 5.98313 248.205 6.15787 248.441 6.21903C248.773 6.3064 249.149 7.12768 249.411 6.49862C249.813 5.55502 250.18 6.72578 250.573 6.35009C251.185 5.77345 251.91 6.10545 252.591 6.14914C253.255 6.19282 253.972 5.87829 254.583 6.13166C255.029 6.31514 255.44 5.72976 255.658 6.07924C256.305 7.10147 257.004 6.42872 257.676 6.41125C257.982 6.41125 258.244 6.51609 258.524 6.72578C259.179 7.24126 258.594 6.00061 258.969 6.03556C259.31 6.0705 259.45 6.51609 259.712 6.69083C259.948 6.8481 260.394 6.78694 260.359 6.63841C260.193 5.91324 260.359 5.87829 260.726 6.17535C260.962 6.36756 261.197 6.41998 261.442 6.35009C261.73 6.26272 261.992 5.59871 262.29 6.40251C262.569 7.1801 262.499 5.57249 263.015 6.18408C263.46 6.71704 264.238 7.11021 264.832 6.03556C264.954 5.81713 265.409 6.03556 265.688 5.92197C266.247 5.69481 266.824 6.52483 267.217 6.15787C267.846 5.55502 268.248 6.32388 268.746 6.33261C269.454 6.35009 270.179 6.64715 270.852 6.13166C271.079 5.95692 271.35 5.72102 271.551 5.92197C272.058 6.43746 272.538 5.60744 273.088 6.04429C273.543 6.40251 274.093 5.76471 274.591 5.53755C274.74 5.46765 274.88 5.40649 275.002 5.55502C275.517 6.11419 276.12 5.69481 276.627 5.87829C277.579 6.2103 278.436 5.85208 279.309 5.55502C279.51 5.48512 279.685 5.35407 279.851 5.56376C280.375 6.25398 280.952 5.70355 281.493 5.75597C282.149 5.81713 282.769 4.95217 283.468 5.65986C283.643 5.8346 283.756 5.37154 283.739 5.09196C283.721 4.82985 283.704 4.48911 283.407 4.74248C283.215 4.90848 282.883 4.85606 282.909 4.68132C283.022 3.97362 282.979 3.54551 282.393 3.5193C282.35 3.5193 282.289 3.29214 282.289 3.17856C282.289 2.93392 282.402 2.8116 282.568 2.8116C282.664 2.8116 282.787 2.75918 282.856 2.82034C283.066 2.99508 283.241 3.2834 283.459 3.41445C283.835 3.63288 283.66 2.7417 284.062 2.78539C284.464 2.82907 284.875 3.09118 284.761 3.48435C284.691 3.74646 284.053 3.89499 284.787 4.05226C285.128 4.13089 285.478 4.06099 285.827 4.06099C285.757 3.87752 285.687 3.6853 285.609 3.51056L285.626 3.46688ZM121.851 4.36679C122.069 4.20078 122.297 4.18331 122.497 4.41921C122.515 4.44542 122.445 4.64637 122.401 4.74248C122.2 5.17059 122.017 4.89101 121.833 4.70753C121.798 4.67258 121.746 4.66385 121.702 4.64637C121.563 5.35407 121.161 5.02206 120.855 5.05701C120.776 5.06575 120.689 4.94343 120.61 4.88227C120.689 4.81238 120.768 4.69879 120.846 4.69879C121.134 4.67258 121.423 4.68132 121.72 4.67258C121.764 4.559 121.79 4.40174 121.851 4.34931V4.36679ZM257.519 3.79888C257.441 3.80762 257.353 3.6853 257.274 3.62414C257.353 3.56298 257.432 3.4494 257.51 3.44067C257.799 3.41445 258.096 3.42319 258.384 3.41445C258.419 3.08245 258.585 2.99508 258.786 2.98634C259.101 2.9776 259.336 3.16108 259.476 3.57172C259.485 3.59793 259.45 3.6853 259.424 3.71151C259.153 3.91246 258.996 3.57172 258.786 3.45814C258.655 3.38824 258.506 3.41445 258.367 3.38824C258.227 4.10468 257.825 3.76393 257.519 3.79888ZM255.213 3.39698C255.632 3.43193 255.693 3.64162 255.387 4.07847C255.265 4.26194 255.186 4.50658 255.09 4.72501C255.684 4.80364 256.235 4.56774 256.785 4.29689C256.855 4.26194 256.969 4.34058 257.047 4.41047C257.117 4.48037 257.082 4.61142 256.96 4.67258C256.436 4.93469 256.112 5.88703 255.405 5.53755C255.081 5.38028 255.116 5.04827 255.108 4.70753C254.767 4.72501 254.391 4.80364 254.749 4.03478C254.819 3.89499 254.776 3.65035 254.784 3.4494C254.575 3.58046 254.365 3.77267 254.147 3.82509C253.954 3.86878 253.762 3.61541 253.727 3.35329C253.657 2.89897 253.954 3.03876 254.094 3.02129C254.365 2.9776 254.68 2.87276 254.793 3.44067C254.933 3.43193 255.073 3.39698 255.213 3.40572V3.39698ZM164.225 3.9212C164.295 3.86004 164.435 3.86004 164.496 3.9212C164.706 4.11341 164.522 4.26194 164.444 4.40174C164.278 4.71627 164.024 4.725 163.78 4.69879C163.71 4.96964 164.348 5.42396 163.719 5.52007C163.325 5.58123 163.055 6.12293 162.644 5.99187C162.557 5.96566 162.469 5.88703 162.391 5.8346C162.434 5.72102 162.452 5.56376 162.513 5.5026C162.897 5.11817 163.282 4.69879 163.797 4.72501C163.841 4.34931 164.007 4.09594 164.225 3.92994V3.9212ZM53.8683 6.92673C53.6411 6.83936 53.379 6.68209 53.2392 6.43746C53.1344 6.25398 53.3703 6.21903 53.4839 6.18408C53.9032 6.04429 54.244 6.35009 54.5847 6.59472C54.5672 6.19282 55.039 5.92197 54.7507 5.46765C54.6022 5.22301 54.0867 5.20554 54.5585 4.66385C54.873 4.30563 55.0915 4.60269 55.3361 4.85606C55.5895 5.12691 55.0216 5.5026 55.3973 5.65113C55.537 5.70355 55.738 5.42397 55.9215 5.34533C56.0613 5.28417 56.2185 5.30165 56.3583 5.28417C56.402 4.84732 56.6379 4.80364 56.8738 4.82985C56.9612 4.82985 57.0922 4.89101 57.1097 4.97838C57.1796 5.24049 57.0223 5.2667 56.9 5.27544C56.7165 5.28417 56.5243 5.27544 56.3409 5.2667C56.0787 6.62093 55.2225 6.32388 54.5672 6.56851C54.4537 7.17137 54.1304 7.02284 53.8595 6.92673H53.8683ZM205.42 4.69879C205.202 5.20554 204.949 5.57249 204.354 5.31912C204.005 5.17059 203.481 5.81713 202.983 5.49386C202.86 5.41523 202.712 5.21428 202.694 5.04827C202.668 4.81238 202.852 4.77743 202.991 4.77743C203.708 4.75995 204.468 4.91722 204.966 3.90373C204.066 3.90373 203.166 3.90373 202.266 3.91246C202.231 4.27942 202.03 4.42795 201.856 4.27068C201.532 3.98236 201.148 3.79888 200.877 4.03478C199.907 4.85606 198.885 3.80762 197.933 4.29689C196.937 3.63288 195.88 4.17457 194.857 3.9911C194.691 3.96489 194.586 3.86004 194.569 3.61541C194.534 3.17856 194.77 3.13487 194.945 3.23971C195.216 3.39698 195.425 3.67656 195.74 3.32708C196.072 2.96013 196.517 3.06497 196.884 3.15234C198.247 3.47561 199.593 3.17855 200.947 3.05624C201.55 3.00381 201.69 3.1174 202.284 3.93867C202.354 3.76393 202.415 3.57172 202.502 3.41445C202.555 3.30961 202.694 3.16982 202.729 3.19603C203.437 3.84257 204.11 2.54075 204.809 3.15234C205.01 3.32708 204.984 3.62414 204.966 3.90373C205.333 3.9212 205.761 3.93867 205.429 4.69879H205.42ZM233.842 4.75122C233.72 4.89974 233.545 4.94343 233.457 4.77743C233.353 4.58521 233.562 4.46289 233.597 4.29689C233.746 3.53677 233.903 2.96013 234.637 3.16108C235.083 3.2834 235.502 2.53202 236.026 2.80286C236.166 2.87276 236.288 2.99508 236.253 3.24845C236.236 3.37077 236.148 3.57172 236.113 3.56298C235.607 3.4494 235.152 3.87752 234.593 3.72899C233.973 3.56298 234.593 4.23573 234.506 4.49784C234.724 4.559 234.847 4.75122 234.759 5.03954C234.724 5.16186 234.523 5.30165 234.427 5.25796C234.209 5.16186 234.375 4.96964 234.427 4.82111C234.462 4.69879 234.497 4.57648 234.532 4.46289C234.279 4.46289 234.052 4.50658 233.851 4.75122H233.842ZM249.787 3.89499C249.14 4.07847 248.468 3.49309 247.804 3.91246C247.681 3.9911 247.507 3.91246 247.358 3.89499C247.201 3.87752 247.087 3.77267 247.052 3.5193C247.008 3.16108 247.183 2.99508 247.349 2.85529C247.611 2.63686 247.891 3.23971 248.171 2.89023C248.669 2.26117 249.062 3.17855 249.56 3.09992C250.014 3.03003 250.372 2.52328 250.827 2.6456C251.062 2.70676 251.272 2.93392 251.508 3.03003C251.718 3.1174 251.866 3.50182 252.155 3.20477C252.364 2.99508 252.784 2.78539 252.836 3.31835C252.871 3.69404 252.469 3.90373 252.137 3.88625C252.041 3.88625 251.936 3.88625 251.709 3.88625C251.15 3.61541 250.468 3.69404 249.769 3.88625L249.787 3.89499ZM241.216 2.96013C241.373 3.05624 241.696 2.69802 241.609 3.30087C241.574 3.52803 241.329 3.88625 241.216 3.86004C240.08 3.54551 238.918 3.97362 237.791 3.57172C237.704 3.53677 237.625 3.44067 237.546 3.37077C237.625 3.30087 237.695 3.18729 237.782 3.16108C238.438 2.96013 239.075 2.49707 239.617 2.69802C240.264 2.69802 240.744 2.6456 241.225 2.95139L241.216 2.96013ZM281.459 2.82907C281.625 2.90771 281.738 3.19603 281.869 3.39698C281.747 3.47561 281.616 3.56298 281.493 3.63288C281.406 3.67656 281.249 3.65909 281.223 3.73772C281.109 4.07847 281.336 3.95615 281.432 3.99983C281.476 4.01731 281.537 3.99983 281.581 4.00857C281.904 4.16584 282.516 3.6853 282.489 4.559C282.472 5.00459 281.965 4.21826 281.642 4.65511C281.249 5.20554 280.908 4.54153 280.602 4.29689C280.384 4.12215 280.331 3.55425 279.938 3.61541C279.816 3.63288 279.615 3.58919 279.694 3.29214C279.746 3.1174 279.868 2.90771 279.991 2.86402C280.218 2.76792 280.471 2.77665 280.698 2.7417C280.961 2.75918 281.223 2.71549 281.45 2.82034L281.459 2.82907ZM52.2869 5.57249C51.7539 5.17059 51.2647 5.31912 50.7492 5.69481C50.6094 5.79966 50.3473 5.72976 50.19 5.60744C49.7095 5.24049 49.2639 5.24923 48.8008 5.64239C48.4863 5.91324 48.2591 5.45018 47.9883 5.36281C47.9184 5.3366 47.8572 5.20554 47.7961 5.11817C47.8747 5.04827 47.9708 4.90848 48.0407 4.93469C48.7484 5.14438 49.3775 4.41921 50.1463 4.81238C50.7579 5.12691 51.5093 4.89974 52.1908 4.94343C52.3306 4.94343 52.4791 5.08322 52.4441 5.25796C52.4267 5.53755 52.3655 5.64239 52.2781 5.57249H52.2869ZM220.474 2.89897C220.719 2.7417 220.964 2.38349 221.234 2.89897C221.496 3.38824 221.794 3.32708 222.117 2.96013C222.3 2.75044 222.562 2.52328 222.781 2.54949C223.148 2.58444 223.663 2.75044 223.707 3.2834C223.751 3.94741 223.113 3.10866 222.982 3.69404C222.16 3.66783 221.313 4.06099 220.535 3.34456C220.457 3.27466 220.369 3.2135 220.282 3.14361C220.343 3.06497 220.404 2.95139 220.483 2.90771L220.474 2.89897ZM187.632 4.41921C187.632 4.41921 187.466 4.26194 187.475 4.21826C187.501 4.0872 187.562 3.96489 187.632 3.87752C187.981 3.40572 188.488 3.51056 188.881 3.44067C189.633 3.30961 190.436 3.12613 191.197 3.61541C191.284 3.66783 191.363 3.74646 191.45 3.81636C191.328 3.9212 191.162 3.98236 191.092 4.13089C190.838 4.65511 190.401 3.86004 190.148 4.46289C189.318 3.92994 188.471 3.89499 187.632 4.43668V4.41921ZM272.084 3.66783C272.014 4.13089 272.538 4.6289 272.154 4.88227C271.883 5.05701 271.586 4.75122 271.656 4.01731C271.699 3.52803 271.219 3.80762 270.974 3.74646C270.695 3.67656 270.205 3.90373 270.179 3.57172C270.144 3.1174 270.633 3.06497 270.913 2.90771C271.088 2.8116 271.297 2.85529 271.726 2.82034C271.918 2.78539 272.18 3.06497 272.084 3.67656V3.66783ZM192.455 4.41047C192.28 4.34058 192.027 4.14836 191.992 3.95615C191.904 3.34456 192.297 3.66783 192.463 3.56298C192.638 3.4494 192.839 3.40572 193.031 3.35329C193.477 3.22224 194.176 3.58919 194.08 3.88625C193.905 4.42795 193.547 4.45416 193.189 4.43668C193.136 4.43668 193.092 4.43668 193.04 4.43668C193.04 4.43668 193.04 4.42795 193.04 4.41921C192.839 4.41921 192.629 4.48037 192.446 4.41047H192.455ZM149.617 4.51532C149.486 4.41921 149.364 4.31437 149.241 4.20952C149.364 4.13089 149.486 3.99983 149.617 3.9911C150.002 3.94741 150.395 4.02604 150.753 3.6853C151.015 3.44067 151.321 3.49309 151.565 3.80762C151.635 3.89499 151.714 4.01731 151.731 4.13963C151.74 4.20078 151.627 4.36679 151.565 4.36679C151.067 4.34931 150.622 4.69006 150.124 4.87353C149.958 4.75995 149.783 4.63763 149.617 4.51532ZM279.169 3.01255C279.318 3.37951 278.846 4.06099 279.458 4.23573C279.388 4.52405 278.671 4.9609 278.505 4.80364C278.357 4.66385 278.357 4.40174 278.436 4.26194C278.636 3.91246 278.593 3.65909 278.348 3.44067C278.191 3.29214 278.016 3.16982 277.85 3.03003C278.007 2.67181 278.27 2.82034 278.488 2.75918C278.724 2.80286 279.03 2.68055 279.169 3.01255ZM274.172 2.87276C274.329 2.89897 274.443 2.98634 274.443 3.25719C274.443 3.5193 274.338 3.64162 274.181 3.65035C273.691 3.66783 273.193 3.67656 272.704 3.65035C272.556 3.65035 272.442 3.52804 272.433 3.25719C272.433 2.98634 272.538 2.87276 272.695 2.86402C272.94 2.83781 273.185 2.85529 273.429 2.84655C273.429 2.82907 273.429 2.8116 273.429 2.79413C273.674 2.8116 273.918 2.82907 274.163 2.86402L274.172 2.87276ZM26.2506 6.18408C26.3642 6.14914 26.4428 6.0705 26.4778 6.24524C26.504 6.36756 26.4778 6.62093 26.4778 6.62093C25.7351 6.7083 25.0799 7.53832 24.2935 7.18884C24.1188 7.11021 23.9266 6.87431 23.979 6.60346C24.0139 6.40251 24.2149 6.47241 24.4857 6.67336C24.9925 6.5423 25.6303 6.38504 26.2506 6.19282V6.18408ZM172.901 4.49784C172.849 4.48037 172.796 4.27942 172.796 4.16584C172.796 4.05226 172.858 3.88625 172.927 3.84257C173.522 3.44067 174.107 4.13089 174.71 3.91246C174.71 3.91246 174.797 4.14836 174.788 4.26194C174.771 4.37552 174.692 4.54153 174.631 4.55026C174.343 4.61142 174.055 4.62016 173.696 4.65511C173.478 4.62016 173.198 4.58521 172.919 4.49784H172.901ZM214.961 3.67656C214.926 3.57172 214.848 3.4494 214.856 3.35329C214.856 3.23971 214.944 3.0475 214.996 3.03876C215.573 2.99508 216.149 2.95139 216.726 2.99508C216.857 3.00381 217.11 3.40572 217.084 3.56298C217.049 3.8513 216.778 3.76393 216.621 3.79015C216.045 3.82509 215.529 2.93392 214.961 3.67656ZM134.983 4.393C134.948 5.06575 134.476 5.03954 134.083 4.66385C134.057 4.63763 133.934 4.82985 133.847 4.87353C133.576 5.03954 133.2 5.15312 133.122 4.67258C133.008 4.02604 133.454 4.19205 133.707 4.14836C133.847 4.12215 133.995 4.14836 134.126 4.14836C134.441 4.21826 135.009 3.91246 134.983 4.41047V4.393ZM243.575 3.22224C243.627 3.23971 243.697 3.44067 243.688 3.55425C243.688 3.66783 243.619 3.86878 243.566 3.87752C243.182 3.92994 242.789 3.97362 242.395 3.97362C242.212 3.97362 241.993 3.92994 242.002 3.5193C242.002 3.1174 242.229 3.13487 242.413 3.09118C242.509 3.07371 242.605 3.09118 242.841 3.09118C242.998 3.1174 243.287 3.15234 243.575 3.23098V3.22224ZM231.876 3.60667C231.326 3.80762 230.705 3.41445 230.181 3.96489C230.146 3.86004 230.05 3.72899 230.067 3.64162C230.26 2.77665 231.387 2.48833 231.92 3.16108C231.955 3.20477 231.972 3.27466 232.007 3.34456C231.963 3.43193 231.928 3.58046 231.876 3.60667ZM26.1283 5.16186C26.2157 5.16186 26.303 5.24049 26.3904 5.28417C26.3467 5.36281 26.303 5.51134 26.2593 5.52007C25.6827 5.57249 25.1934 6.26272 24.5644 6.00061C24.3809 5.92197 24.145 5.96566 24.1799 5.54628C24.2062 5.14438 24.4071 5.17933 24.9226 5.31038C25.1148 5.28417 25.6215 5.21428 26.1283 5.17059V5.16186ZM32.9781 6.07924C32.9781 6.07924 33.2315 6.3064 33.2752 6.48114C33.3363 6.74325 33.1441 6.81315 33.0218 6.76946C32.6898 6.65588 32.4451 7.35484 32.0695 6.90926C31.8947 6.69957 31.5627 6.65588 31.6676 6.20156C31.7287 5.92197 31.9821 5.93945 32.1918 5.95692C32.4451 6.02682 32.681 6.40251 32.9868 6.0705L32.9781 6.07924ZM142.619 4.87353C142.462 4.87353 142.365 4.75122 142.339 4.49784C142.313 4.21826 142.435 4.10468 142.584 4.07847C142.968 3.9911 143.361 3.9212 143.72 4.20952C143.833 4.30563 143.912 4.51532 143.999 4.66385C143.877 4.74248 143.763 4.82985 143.632 4.88227C143.545 4.91722 143.44 4.88227 143.344 4.89101V4.87353C143.099 4.87353 142.855 4.89101 142.619 4.87353ZM170.857 4.58521C170.857 4.58521 170.743 4.48911 170.743 4.47163C170.769 4.34931 170.804 4.21826 170.866 4.13089C171.224 3.59793 171.678 3.80762 172.106 3.79888C172.272 3.79888 172.368 3.9212 172.394 4.16584C172.429 4.44542 172.29 4.57648 172.159 4.60269C171.923 4.65511 171.669 4.62016 171.433 4.62016C171.433 4.63763 171.433 4.65511 171.433 4.67258C171.241 4.64637 171.049 4.6289 170.857 4.58521ZM62.8761 5.17059C62.8936 5.23175 62.9023 5.34533 62.8761 5.38028C62.5703 5.8346 62.2383 5.69481 61.95 5.38028C61.6442 5.04827 61.0938 5.57249 61.0151 4.93469C60.9889 4.725 61.6355 4.8648 61.9675 4.77743C62.2733 4.88227 62.6752 4.52405 62.8761 5.17059ZM92.5033 5.35407C92.4159 5.35407 92.3373 5.23175 92.2587 5.16186C92.3373 5.09196 92.4159 4.96964 92.4946 4.96964C93.2722 4.94343 94.0585 4.93469 94.8361 4.94343C94.9147 4.94343 95.0021 5.05701 95.0895 5.12691C95.0108 5.1968 94.9322 5.31912 94.8536 5.31912C94.4167 5.34533 93.9799 5.3366 93.5343 5.3366C93.5343 5.3366 93.5343 5.3366 93.5343 5.34533C93.1935 5.34533 92.8528 5.36281 92.5121 5.34533L92.5033 5.35407ZM71.0802 5.34533C70.9229 5.06575 71.7092 4.6289 72.3558 4.71627C72.4082 4.71627 72.4606 4.71627 72.5043 4.74248C72.6528 4.82111 72.7664 4.93469 72.7227 5.1968C72.6878 5.44144 72.5567 5.52007 72.4082 5.49386C72.3121 5.47639 72.2335 5.38028 72.1199 5.31038C71.7791 5.22301 71.4122 5.93071 71.0889 5.34533H71.0802ZM253.806 4.90848C253.858 4.94343 253.867 5.16186 253.876 5.29291C253.876 5.34533 253.788 5.45018 253.788 5.44144C253.421 5.09196 252.889 5.32786 252.583 4.73374C252.557 4.67258 252.504 4.56774 252.513 4.559C252.574 4.48037 252.653 4.41921 252.723 4.34931C253.159 4.23573 253.465 4.67258 253.806 4.91722V4.90848ZM210.785 3.8513C210.601 3.82509 210.348 3.84257 210.383 3.42319C210.427 2.85529 210.68 3.02129 210.916 3.16982C211.047 3.24845 211.187 3.30961 211.327 3.35329C211.562 3.42319 212.026 3.37951 211.991 3.58046C211.903 4.05226 211.501 3.80762 211.309 3.84257C211.082 3.84257 210.933 3.86878 210.785 3.84257V3.8513ZM74.0246 5.30165C73.9809 5.21428 74.0246 5.04827 74.0246 4.90848C74.3915 4.92596 74.7585 4.94343 75.1254 4.9609C75.1079 5.08322 75.1254 5.29291 75.0817 5.31912C74.9157 5.4327 74.741 5.49386 74.6711 5.52007C74.3566 5.51134 74.1556 5.54628 74.0333 5.29291L74.0246 5.30165ZM186.505 4.20952C186.33 4.48911 186.138 4.3231 186.015 4.1571C185.849 3.92994 185.404 4.37552 185.483 3.72025C185.491 3.64162 185.884 3.14361 186.216 3.47561C186.365 3.62414 186.522 3.72025 186.688 3.8513C186.618 3.9911 186.575 4.11341 186.505 4.20952ZM148.027 4.69879C147.835 4.53279 147.651 4.35805 147.459 4.19205C147.538 4.13089 147.616 4.01731 147.695 4.00857C147.975 3.98236 148.263 3.9911 148.542 4.00857C148.63 4.00857 148.735 4.0872 148.787 4.18331C148.909 4.41047 148.805 4.0872 148.735 4.36679C148.551 4.68132 148.35 4.97838 148.018 4.69879H148.027ZM161.823 4.60269C161.657 4.48911 161.447 4.34058 161.499 4.02604C161.517 3.92994 161.753 3.86878 161.893 3.87752C162.032 3.88625 162.181 3.98236 162.303 4.07847C162.478 4.20952 162.635 4.36679 162.801 4.51532C162.653 4.75122 162.443 4.69879 162.19 4.72501C162.102 4.69879 161.945 4.68132 161.823 4.59395V4.60269ZM40.5706 5.39775C40.4832 5.37154 40.4046 5.2667 40.3259 5.1968C40.4046 5.12691 40.4919 5.04827 40.5706 4.97838C40.7016 4.87353 40.8501 4.67258 40.9637 4.70753C41.2957 4.80364 41.6103 4.99585 41.9248 5.15312C41.6802 5.64239 41.3307 5.38028 40.9899 5.42396C40.8676 5.42396 40.7104 5.42396 40.5706 5.38902V5.39775ZM34.8828 6.51609C34.6381 6.83062 34.3323 6.7782 34.044 6.75199C33.9217 6.74325 33.7207 6.75199 33.8169 6.41998C33.8518 6.29767 33.9304 6.1404 34.0091 6.12293C34.3061 6.03556 34.6119 5.98313 34.9177 5.94819C34.9614 5.94819 35.0226 6.09671 35.075 6.17535C35.0051 6.28893 34.9527 6.41125 34.8828 6.50735V6.51609ZM99.6414 5.27544C99.5628 5.27544 99.4842 5.15312 99.4055 5.09196C99.4842 5.0308 99.5628 4.91722 99.6502 4.90848C100.131 4.89101 100.611 4.88227 101.101 4.89101C101.179 4.89101 101.258 5.01333 101.336 5.07449C101.258 5.13564 101.179 5.24049 101.092 5.24923C100.856 5.27544 100.611 5.25796 100.367 5.2667C100.122 5.2667 99.8861 5.28417 99.6414 5.2667V5.27544ZM217.879 3.55425C217.827 3.45814 217.792 3.24845 217.827 3.16982C217.993 2.83781 218.255 2.82907 218.473 2.96013C218.639 3.05624 218.867 3.32708 218.867 3.50182C218.858 3.82509 218.587 3.71151 218.412 3.7552C218.22 3.74646 218.01 3.80762 217.879 3.55425ZM124.009 5.01333C123.86 4.94343 123.808 4.72501 123.843 4.52405C123.86 4.42795 123.957 4.3231 124.035 4.28815C124.245 4.19205 124.376 4.48037 124.551 4.54153C124.673 4.58521 124.874 4.12215 124.944 4.61142C124.996 4.98711 124.76 5.01333 124.577 5.04827C124.533 5.04827 124.481 5.05701 124.367 5.06575C124.289 5.05701 124.14 5.07448 124.009 5.01333ZM225.367 3.47561C225.376 3.17856 225.585 2.8815 225.874 2.89897C226.083 2.91644 226.276 3.10866 226.302 3.35329C226.354 3.9212 225.996 3.60667 225.847 3.72025C225.655 3.67656 225.358 3.74646 225.367 3.47561ZM228.058 3.43193C228.075 3.1174 228.294 2.85529 228.565 2.8815C228.766 2.90771 228.975 3.09118 228.984 3.34456C229.028 3.93867 228.626 3.47561 228.547 3.70278C228.32 3.65035 228.032 3.72025 228.049 3.43193H228.058ZM233.125 3.92994C232.881 3.95615 232.409 3.37951 232.453 3.10866C232.47 3.01255 232.558 2.87276 232.627 2.85529C232.942 2.79413 233.309 3.26592 233.283 3.6853C233.23 3.77267 233.187 3.9212 233.125 3.92994ZM60.3075 5.16186C60.3686 5.25796 60.3948 5.38902 60.4385 5.5026C60.3511 5.54628 60.255 5.64239 60.1851 5.61618C59.958 5.52881 59.7308 5.40649 59.5124 5.28417C59.3813 5.21428 59.2503 5.12691 59.128 5.04827C59.2678 4.81238 59.46 4.80364 59.7046 4.81238C59.9055 4.81238 60.1415 4.87353 60.3162 5.16186H60.3075ZM97.9552 5.04827C98.0513 4.62016 98.3222 4.46289 98.6367 4.48911C98.7678 4.49784 98.96 4.51532 98.9163 4.74248C98.8202 5.17933 98.5668 5.35407 98.2697 5.29291C98.1212 5.27544 97.9115 5.2667 97.9639 5.04827H97.9552ZM183.228 4.44542C182.896 4.47163 182.494 3.84257 182.617 3.5193C182.678 3.34456 182.748 3.32708 182.853 3.45814C183.045 3.71151 183.473 3.58046 183.429 4.20952C183.359 4.28815 183.298 4.43668 183.228 4.43668V4.44542ZM132.117 4.14836C132.353 4.18331 132.449 4.41921 132.379 4.70753C132.353 4.82985 132.169 4.91722 132.047 4.94343C131.977 4.9609 131.881 4.82111 131.802 4.75122C131.645 4.62016 131.488 4.48911 131.331 4.35805C131.462 4.11341 131.654 4.13089 131.837 4.11341C131.933 4.12215 132.021 4.13089 132.117 4.14836ZM141.081 4.07847C141.168 4.10468 141.247 4.20952 141.326 4.27942C141.247 4.34931 141.168 4.48037 141.09 4.48037C140.705 4.49784 140.321 4.49784 139.937 4.48037C139.858 4.48037 139.771 4.35805 139.692 4.28815C139.771 4.21826 139.849 4.10468 139.928 4.09594C140.164 4.06973 140.408 4.07847 140.653 4.07847C140.653 4.06099 140.653 4.04352 140.653 4.02604C140.801 4.04352 140.941 4.02604 141.09 4.07847H141.081ZM271.088 4.88227C270.817 4.49784 270.581 4.89974 270.328 4.95217C270.258 4.9609 270.179 4.85606 270.109 4.78616C270.109 4.78616 270.135 4.66385 270.162 4.61142C270.397 4.12215 270.826 4.01731 271.14 4.36679C271.166 4.40174 271.166 4.48911 271.175 4.55026C271.14 4.66385 271.105 4.77743 271.079 4.89101L271.088 4.88227ZM213.546 4.94343C213.336 5.12691 213.1 5.17059 212.882 4.98711C212.847 4.9609 212.856 4.75122 212.882 4.67258C213.065 4.29689 213.336 4.20078 213.633 4.27942C213.703 4.29689 213.755 4.41921 213.895 4.57648C213.773 4.70753 213.659 4.83859 213.537 4.94343H213.546ZM31.8772 4.74248C32.1044 4.81238 32.3228 4.94343 32.5325 5.07449C32.5937 5.11817 32.6374 5.24049 32.6898 5.31912C32.5675 5.38902 32.4364 5.53755 32.3141 5.52007C32.0695 5.48512 31.7287 5.67734 31.6413 5.17059C31.6151 4.83859 31.7287 4.69006 31.8772 4.73374V4.74248ZM207.465 5.09196C207.185 5.22301 206.914 5.34533 206.635 5.45018C206.609 5.45018 206.504 5.25796 206.512 5.17059C206.547 4.725 207.107 4.393 207.412 4.62016C207.456 4.64637 207.482 4.725 207.509 4.77743C207.613 4.92596 207.596 5.03954 207.456 5.1007L207.465 5.09196ZM244.816 3.92994C244.632 3.93867 244.405 3.94741 244.396 3.54551C244.379 3.13487 244.615 3.10866 244.789 3.09992C244.973 3.09118 245.191 3.10866 245.209 3.4494C245.226 3.92994 244.99 3.9212 244.816 3.92994ZM182.136 3.9911C182.136 4.1571 181.892 4.41047 181.734 4.46289C181.472 4.55026 181.228 4.27068 181.193 3.94741C181.166 3.62414 181.446 3.6853 181.63 3.65035C181.796 3.7552 182.136 3.47561 182.136 3.9911ZM33.1354 5.05701C33.1266 4.81238 33.2315 4.70753 33.3975 4.70753C33.6159 4.70753 33.7382 4.90848 33.8431 5.13564C33.9916 5.46765 33.747 5.39775 33.6596 5.5026C33.4412 5.46765 33.1616 5.56376 33.1441 5.05701H33.1354ZM153.898 5.72102C153.872 6.07924 153.636 6.0705 153.444 6.06177C153.217 6.05303 153.033 5.86082 153.094 5.55502C153.182 5.13564 153.392 5.59871 153.627 5.47639C153.715 5.42397 153.942 5.15312 153.898 5.72102ZM105.347 5.28417C105.312 4.89101 105.53 4.84732 105.705 4.82985C105.836 4.82111 106.081 4.9609 106.081 4.98711C106.046 5.34533 105.88 5.54628 105.661 5.60744C105.469 5.63365 105.373 5.52007 105.355 5.28417H105.347ZM136.555 4.27942C136.512 4.393 136.485 4.54153 136.416 4.62016C136.319 4.74248 136.232 4.94343 136.049 4.75122C135.9 4.58521 135.551 4.41921 135.559 4.38426C135.655 3.96489 135.944 4.18331 136.18 4.06973C136.293 4.13089 136.424 4.20078 136.555 4.27942ZM138.041 4.48037C138.041 4.48037 137.971 4.393 137.936 4.34931C137.988 4.27068 138.032 4.13963 138.084 4.12215C138.268 4.0872 138.46 4.07847 138.652 4.0872C138.836 4.0872 139.168 4.00857 139.159 4.23573C139.141 4.67258 138.809 4.43668 138.608 4.51532C138.416 4.50658 138.224 4.49784 138.041 4.47163V4.48037ZM102.035 5.24049C101.957 5.21428 101.887 5.11817 101.808 5.05701C101.887 4.99585 101.965 4.89974 102.053 4.88227C102.289 4.84732 102.525 4.82985 102.761 4.85606C102.883 4.87353 103.005 4.98712 103.119 5.05701C102.996 5.12691 102.874 5.21428 102.743 5.25796C102.656 5.29291 102.551 5.25796 102.332 5.2667C102.315 5.2667 102.175 5.2667 102.035 5.23175V5.24049ZM179.052 4.28815C178.746 4.66385 178.528 4.17457 178.292 4.05226C178.135 3.96489 178.117 4.19205 178.205 3.94741C178.248 3.81636 178.449 3.7552 178.58 3.73772C178.799 3.71151 179.052 3.59793 179.218 3.95615C179.166 4.06973 179.122 4.20952 179.052 4.29689V4.28815ZM180.511 4.48911C180.328 4.53279 180.258 4.393 180.223 4.1571C180.188 3.87752 180.301 3.79015 180.45 3.7552C180.616 3.72025 180.721 3.83383 180.738 4.0872C180.765 4.34058 180.668 4.44542 180.502 4.48037L180.511 4.48911ZM246.406 3.60667C246.406 3.67656 246.275 3.81636 246.248 3.79888C246.039 3.66783 245.812 3.54551 245.663 3.31835C245.602 3.22224 245.803 3.09992 245.584 3.09992C246.187 3.09992 246.414 3.14361 246.406 3.59793V3.60667ZM159.804 4.0872C159.638 4.41921 159.394 4.33184 159.175 4.31437C159.044 4.31437 158.922 4.19205 158.791 4.12215C158.948 3.79015 159.202 3.90373 159.464 3.86004C159.551 3.9212 159.682 3.99983 159.804 4.0872ZM154.038 4.16584C154.143 3.83383 154.457 3.9212 154.693 3.92994C154.816 3.92994 154.947 4.07847 155.069 4.1571C154.929 4.393 154.737 4.41047 154.545 4.393C154.353 4.37552 154.003 4.30563 154.047 4.17457L154.038 4.16584ZM84.5526 5.17059C84.5526 4.9609 85.3914 4.94343 85.47 5.15312C85.4875 5.20554 85.4176 5.38028 85.3739 5.38902C85.2341 5.4327 85.0943 5.42397 84.9371 5.4327C84.806 5.37154 84.5439 5.57249 84.5526 5.16186V5.17059ZM130.911 4.55026C130.937 4.81237 130.841 4.90848 130.684 4.95217C130.501 5.00459 130.431 4.84732 130.396 4.6289C130.361 4.38426 130.466 4.26194 130.623 4.227C130.798 4.19205 130.885 4.30563 130.902 4.54153L130.911 4.55026ZM128.666 4.59395C128.543 4.57648 128.386 4.59395 128.421 4.33184C128.421 4.26194 128.578 4.21826 128.666 4.19205C128.762 4.16584 128.858 4.13963 128.954 4.17457C129.103 4.21826 129.356 4.05226 129.339 4.46289C129.339 4.54153 129.103 4.60269 129.041 4.63763C128.875 4.62016 128.779 4.62016 128.683 4.60269L128.666 4.59395ZM58.0184 6.19282C58.1407 6.65588 57.8349 6.53356 57.7038 6.55104C57.5902 6.56851 57.4592 6.42872 57.3369 6.35882C57.4505 6.16661 57.564 5.96566 57.6951 5.75597C57.8261 5.93071 57.9747 6.03556 58.0184 6.20156V6.19282ZM217.18 4.99585C217.014 4.96964 216.927 4.85606 216.953 4.60269C216.979 4.37552 217.058 4.227 217.233 4.27068C217.381 4.30563 217.504 4.40174 217.46 4.66385C217.442 4.89974 217.355 5.02206 217.18 4.99585ZM62.5179 6.65588C62.5004 7.0141 62.2558 6.96168 62.0898 6.91799C61.985 6.89178 61.7403 6.88304 61.9151 6.55978C61.9937 6.41125 62.116 6.3064 62.2296 6.15787C62.3432 6.35009 62.5267 6.51609 62.5179 6.65588ZM86.5709 5.39775C86.4398 5.39775 86.2738 5.38028 86.3263 5.12691C86.3787 4.89101 86.5097 4.64637 86.7282 4.75122C86.8417 4.81237 86.9291 4.99585 87.0252 5.11817C86.9378 5.48512 86.7456 5.38902 86.5796 5.39775H86.5709ZM181.446 5.35407C181.472 5.11817 181.568 5.01333 181.726 5.03954C181.883 5.06575 181.979 5.17933 181.944 5.42396C181.918 5.64239 181.848 5.79966 181.865 5.79966C181.516 5.69481 181.411 5.59871 181.446 5.34533V5.35407ZM83.3557 5.10943C83.3819 4.95217 83.5654 4.73374 83.6702 4.74248C83.7838 4.75122 83.941 4.96964 83.9847 5.13564C84.0546 5.41523 83.8624 5.41523 83.7226 5.45018C83.5916 5.36281 83.2858 5.61618 83.3557 5.10943ZM167.746 6.14914C167.703 6.05303 167.694 5.86082 167.746 5.76471C167.869 5.49386 168.078 5.5026 168.271 5.54628C168.349 5.56376 168.41 5.67734 168.48 5.74723C168.463 5.89576 167.799 6.26272 167.746 6.1404V6.14914ZM247.76 5.01333C247.865 4.67258 248.171 4.7949 248.398 4.80364C248.52 4.80364 248.642 4.93469 248.773 5.00459C248.634 5.23175 248.441 5.22301 248.249 5.20554C248.066 5.18807 247.725 5.13564 247.76 5.02206V5.01333ZM80.8132 5.42396C80.6559 5.38902 80.5511 5.30165 80.5773 5.0308C80.6035 4.7949 80.6734 4.65511 80.8482 4.69879C81.0054 4.73374 81.119 4.82985 81.119 4.82985C81.0666 5.31912 80.9967 5.45891 80.8132 5.41523V5.42396ZM79.5114 4.80364C79.5726 4.85606 79.6075 5.04827 79.5988 5.16186C79.59 5.3366 79.5027 5.38028 79.3978 5.31038C79.2668 5.22301 79.1182 5.16186 78.9872 5.05701C78.9173 5.00459 78.8823 4.88227 78.8299 4.7949C78.9173 4.74248 79.0046 4.69006 79.127 4.61142C79.2318 4.65511 79.3803 4.69006 79.5027 4.78616L79.5114 4.80364ZM53.5537 5.0308C53.3353 5.22301 53.1256 5.41523 52.8985 5.58997C52.8985 5.58997 52.8111 5.48512 52.8111 5.4327C52.8111 4.9609 53.0208 4.87353 53.2916 4.89101C53.3703 4.93469 53.4576 4.98711 53.545 5.0308H53.5537ZM46.9835 5.6686C46.7738 5.52007 46.5554 5.37154 46.3457 5.22301C46.3894 5.13564 46.4244 4.98711 46.4768 4.97838C46.7127 4.92596 46.9573 4.87353 47.0709 5.30165C47.0447 5.42396 47.0097 5.54628 46.9835 5.6686ZM43.0431 5.28417C42.9995 4.84732 43.2616 5.01333 43.4101 4.98711C43.5411 4.9609 43.7246 5.02206 43.7071 5.22301C43.6897 5.48512 43.5237 5.65113 43.314 5.71229C43.2179 5.57249 43.0606 5.44144 43.0431 5.28417ZM31.2482 5.54628C31.222 5.77345 31.1433 5.9045 30.9773 5.86955C30.8201 5.8346 30.724 5.72102 30.7502 5.47639C30.7764 5.25796 30.8463 5.1007 31.0298 5.15312C31.187 5.17933 31.2831 5.29291 31.2569 5.54628H31.2482ZM28.7494 5.38028C28.7057 5.03954 28.994 5.10943 29.16 5.1007C29.3435 5.09196 29.6406 4.98711 29.6755 5.2667C29.7279 5.61618 29.4309 5.5026 29.2736 5.56376C29.0901 5.52007 28.7931 5.6686 28.7494 5.38028ZM207.308 3.79888C207.15 3.77267 207.054 3.65909 207.089 3.40572C207.115 3.17856 207.203 3.0475 207.377 3.09118C207.526 3.12613 207.64 3.22224 207.596 3.48435C207.57 3.72025 207.474 3.83383 207.308 3.80762V3.79888ZM206.486 3.23098C206.696 3.0475 206.722 3.2834 206.705 3.49309C206.687 3.84257 206.478 3.88625 206.303 3.89499C206.18 3.89499 206.049 3.79015 205.918 3.73772C206.041 3.35329 206.303 3.38824 206.486 3.23098ZM241.548 4.99585C241.513 5.34533 241.303 5.24049 241.155 5.24049C241.076 5.24049 240.919 5.13564 240.919 5.10943C240.963 4.76869 241.163 4.87353 241.312 4.83859C241.391 4.89101 241.548 4.95217 241.539 4.98711L241.548 4.99585ZM191.092 5.58123C191.074 5.31038 191.24 5.30165 191.363 5.31912C191.494 5.34533 191.625 5.45018 191.756 5.52881C191.625 5.60744 191.494 5.68608 191.389 5.7385C191.258 5.6686 191.1 5.63365 191.092 5.57249V5.58123ZM99.1434 6.92673C99.0561 7.00536 98.8551 7.00536 98.8639 6.76073C98.8639 6.6122 99.0124 6.46367 99.1172 6.34135C99.1959 6.24524 99.2658 6.3064 99.3357 6.51609C99.2832 6.63841 99.2395 6.83936 99.1522 6.91799L99.1434 6.92673ZM56.5243 6.97915C56.402 6.97915 56.2797 6.83936 56.1661 6.76946C56.2884 6.69957 56.4108 6.58599 56.5418 6.58599C56.6641 6.58599 56.7864 6.68209 56.9961 6.7782C56.7864 6.87431 56.6554 6.98789 56.5331 6.97915H56.5243ZM273.359 4.90848C273.281 4.92596 273.123 4.85606 273.123 4.81238C273.106 4.51532 273.254 4.35805 273.429 4.27068C273.455 4.25321 273.525 4.41921 273.578 4.49784C273.604 4.74248 273.508 4.87353 273.359 4.89974V4.90848ZM264.692 4.6289C264.701 4.41921 264.745 4.227 264.919 4.41921C265.024 4.53279 265.085 4.71627 265.173 4.8648C265.094 4.90848 265.015 4.95217 264.937 4.99585C264.78 4.96964 264.683 4.8648 264.692 4.62016V4.6289ZM215.153 5.45018C214.979 5.46765 214.865 5.3366 214.865 5.09196C214.865 4.99585 214.944 4.89101 214.979 4.7949C215.092 4.92596 215.206 5.05701 215.293 5.15312C215.319 5.35407 215.276 5.4327 215.153 5.45018ZM200.484 5.4327C200.335 5.60744 200.257 5.47639 200.231 5.24923C200.196 4.99585 200.327 4.89101 200.458 4.85606C200.528 4.83859 200.615 4.92596 200.72 4.97838C200.641 5.13564 200.58 5.31912 200.484 5.4327ZM183.683 5.1968C183.622 5.45018 183.508 5.64239 183.307 5.64239C183.281 5.64239 183.228 5.41523 183.237 5.31038C183.255 5.1007 183.359 4.97838 183.525 4.99585C183.578 5.06575 183.7 5.15312 183.691 5.1968H183.683ZM133.917 5.88703C133.891 6.13166 133.777 6.19282 133.655 6.03556C133.567 5.92197 133.524 5.7385 133.462 5.58123C133.541 5.54628 133.62 5.51134 133.707 5.47639C133.856 5.52881 133.943 5.65986 133.917 5.88703ZM132.082 5.64239C131.96 5.71229 131.837 5.8346 131.715 5.8346C131.593 5.8346 131.47 5.71229 131.339 5.65113C131.453 5.57249 131.575 5.49386 131.698 5.40649C131.837 5.49386 131.951 5.57249 132.073 5.65113L132.082 5.64239ZM221.846 4.58521C221.724 4.393 221.785 4.25321 221.951 4.21826C222.108 4.19205 222.213 4.31437 222.239 4.53279C222.248 4.63763 222.195 4.75995 222.16 4.91722C222.047 4.80364 221.933 4.71627 221.846 4.58521ZM29.7978 6.78694C29.7279 6.76073 29.5969 6.62967 29.6056 6.59472C29.6668 6.33261 29.7891 6.12293 29.9988 6.12293C30.025 6.12293 30.0599 6.35009 30.0949 6.47241C30.0599 6.69957 29.9813 6.8481 29.8066 6.78694H29.7978ZM112.625 4.92596C112.66 5.12691 112.494 5.17933 112.371 5.17059C112.24 5.15312 112.022 5.10943 112.013 5.02206C111.987 4.81237 112.144 4.77743 112.336 4.75122C112.406 4.78616 112.616 4.82985 112.633 4.92596H112.625ZM266.868 3.64162C266.754 3.4494 266.641 3.26592 266.527 3.07371C266.606 3.03876 266.693 2.95139 266.772 2.96887C266.911 2.99508 267.034 3.09118 266.999 3.38824C266.973 3.4494 266.92 3.54551 266.876 3.64162H266.868ZM263.556 3.61541C263.556 3.32708 263.696 3.15234 263.88 3.06497C263.906 3.05624 263.993 3.22224 264.019 3.32708C264.072 3.58046 263.941 3.66783 263.801 3.73772C263.714 3.69404 263.556 3.65035 263.556 3.60667V3.61541ZM208.985 3.8513C208.863 3.8513 208.732 3.71151 208.609 3.64162C208.74 3.57172 208.863 3.44067 208.994 3.44067C209.116 3.44067 209.247 3.54551 209.457 3.65035C209.238 3.7552 209.107 3.86878 208.985 3.86004V3.8513ZM184.364 4.28815C184.216 4.47163 184.137 4.33184 184.102 4.11341C184.067 3.8513 184.189 3.7552 184.329 3.72025C184.408 3.70278 184.495 3.79015 184.609 3.84257C184.53 3.99983 184.46 4.17457 184.364 4.28815ZM167.222 4.23573C167.1 4.04352 167.17 3.90373 167.327 3.87752C167.484 3.8513 167.598 3.95615 167.615 4.17457C167.624 4.27942 167.572 4.40174 167.537 4.559C167.423 4.44542 167.301 4.36679 167.222 4.23573ZM152.893 3.97362C153.016 3.97362 153.138 4.09594 153.26 4.16584C153.138 4.23573 153.016 4.35805 152.893 4.36679C152.771 4.37552 152.64 4.27068 152.43 4.17457C152.649 4.07847 152.771 3.97362 152.893 3.97362ZM146.629 4.73374C146.437 4.66385 146.323 4.45416 146.253 4.20078C146.332 4.1571 146.411 4.06973 146.498 4.07847C146.647 4.07847 146.76 4.19205 146.734 4.48037C146.708 4.55026 146.655 4.74248 146.629 4.73374ZM145.135 4.43668C145.013 4.23573 145.091 4.11341 145.249 4.0872C145.397 4.06099 145.511 4.17457 145.537 4.393C145.546 4.49784 145.493 4.62016 145.458 4.76869C145.345 4.65511 145.222 4.57648 145.144 4.44542L145.135 4.43668ZM123.327 4.93469C123.153 4.84732 123.013 4.68132 123.004 4.393C123.004 4.35805 123.161 4.27942 123.24 4.28815C123.389 4.31437 123.493 4.42795 123.467 4.68132C123.424 4.76869 123.354 4.94343 123.327 4.93469ZM36.8835 5.24923C36.7612 5.31912 36.6389 5.44144 36.5166 5.44144C36.3943 5.44144 36.272 5.31912 36.1496 5.25796C36.272 5.17933 36.3855 5.1007 36.5166 5.01333C36.6476 5.1007 36.7612 5.17933 36.8835 5.25796V5.24923ZM160.608 4.14836C160.608 3.8513 160.748 3.69404 160.923 3.60667C160.949 3.59793 161.036 3.7552 161.063 3.86004C161.115 4.11341 160.975 4.20078 160.844 4.27068C160.766 4.227 160.608 4.19205 160.608 4.14836Z" fill="#0D0D0D"/>
</svg>