<svg xmlns="http://www.w3.org/2000/svg" width="71" height="43" viewBox="0 0 71 43" fill="none">
  <path d="M4 27.1252C4.11679 26.3642 4.53853 25.6325 4.84852 24.9378C5.24602 24.047 5.41184 23.0521 5.71436 22.1253C6.31884 20.2737 7.61946 18.3947 8.75346 16.813C10.0275 15.0359 10.7023 12.8326 12.5372 11.5006C12.8671 11.261 15.0807 9.70215 15.2126 10.8929C15.3474 12.109 14.2079 13.3054 13.6974 14.313C12.9302 15.8274 12.0868 17.3274 11.4809 18.9136C11.0792 19.9651 10.444 20.9076 10.0782 21.9691C9.73714 22.9589 9.52529 23.9514 9.29894 24.9725C8.79504 27.2458 8.67554 29.4868 8.67554 31.8126C8.67554 32.6171 8.58683 33.4774 8.67554 34.2779C8.771 35.1392 11.2567 32.9544 11.4116 32.7849C13.7765 30.1955 15.1727 26.6302 16.191 23.3232C17.1528 20.2 18.381 17.1479 19.3513 14.0179C20.0566 11.7432 21.4249 8.94436 23.1351 7.22982C23.7063 6.65718 24.456 6.25722 25.1958 5.9538C25.5217 5.82012 25.8009 5.63582 25.8192 6.11873C25.8516 6.97593 25.8876 7.8964 25.7845 8.74888C25.4262 11.7124 24.1595 14.8127 23.0831 17.5768C22.3704 19.407 21.7347 21.3023 20.8666 23.0628C19.953 24.9154 18.8565 27.0439 18.4336 29.0696C18.049 30.9115 17.551 33.0081 17.9054 34.9029C18.1194 36.047 18.5179 35.5115 19.2042 34.8421C20.7792 33.3058 22.3491 31.7042 23.4035 29.7467C25.0792 26.6356 26.0601 23.0622 27.369 19.7816C28.378 17.2528 29.1229 14.6331 30.3389 12.195C30.7263 11.4181 35.1517 2.6433 36.5729 4.22641C37.4842 5.24147 36.6795 8.00085 36.3997 9.0527C35.8428 11.1467 34.9681 13.111 34.2005 15.129C33.2527 17.6207 32.0701 20.2204 31.5164 22.8371C31.0532 25.0262 30.8839 27.1657 30.183 29.3127C29.5787 31.1638 28.8566 32.9518 28.3994 34.8508C28.2192 35.5991 27.9931 36.7372 28.1656 37.5157C28.6235 39.5814 31.533 35.0659 31.7415 34.7119C34.092 30.7217 35.9435 26.6682 37.7505 22.4205C39.0168 19.4437 40.6046 16.4107 41.2484 13.2193C41.6965 10.9985 42.0607 8.1049 43.5083 6.27498C44.2406 5.34929 45.1225 4.02976 46.4262 4.00072C49.1584 3.93985 47.4444 7.77627 46.9284 9.01797C46.2639 10.6167 45.561 12.2127 44.7464 13.7401C43.993 15.1529 42.9986 16.4912 42.3394 17.9414C41.594 19.5813 41.0277 21.352 40.4692 23.0628C39.849 24.9626 39.2182 26.9145 38.6769 28.844C38.2243 30.4574 37.8564 32.0819 37.3522 33.6876C36.9667 34.9151 36.5729 36.2983 36.5729 37.5938C36.5729 38.6697 36.9838 39 38.0622 39C40.7215 39 42.0213 35.9749 42.9974 33.9307C43.6166 32.6341 43.8761 31.2159 44.4607 29.9203C45.0498 28.6148 45.5044 27.2961 46.0019 25.9534C46.8609 23.6349 47.5909 21.383 48.7639 19.1914C50.4846 15.9765 51.1579 12.288 53.4741 9.40859C54.3119 8.3671 55.3785 7.46647 55.7426 9.31311C56.035 10.7961 55.482 12.0763 54.8854 13.4276C54.1139 15.1752 53.1745 16.8557 52.3832 18.6011C51.1721 21.2722 49.861 23.9587 48.9717 26.7607C48.6351 27.8215 48.2106 28.7399 48.1059 29.8682C48.0075 30.9288 47.9115 31.9867 47.7942 33.0453C47.6923 33.965 47.2714 34.7771 47.3266 35.7188C47.3479 36.0803 48.1224 36.0537 48.3397 36.0053C49.7522 35.6906 51.0906 33.1046 51.7684 32.0297C55.3893 26.2875 55.7679 19.5416 57.9592 13.254C58.3164 12.2291 59.143 10.0543 60.574 10.2593C61.4159 10.3798 61.4834 12.1229 61.5437 12.7158C61.7036 14.2868 61.4235 15.354 60.7645 16.7782C59.5147 19.4791 58.2046 22.1772 56.8336 24.8163C55.7617 26.8795 55.4123 29.1892 54.8768 31.4133C54.6106 32.5187 54.244 34.1016 54.5304 35.2501C55.1433 37.7075 58.0121 33.0341 58.2276 32.5765C59.9913 28.832 60.2418 24.455 61.4312 20.5108C61.8876 18.9974 62.3453 16.8652 63.2581 15.563C63.8677 14.6933 65.2962 13.7661 66.4184 14.3911C67.2097 14.8318 66.9639 16.1381 66.9639 16.9345C66.9639 18.1725 66.2965 19.3551 66.0288 20.5629C65.7347 21.8896 65.3633 23.1924 65.0591 24.5038C64.8349 25.4701 64.4703 26.4259 64.4703 27.4377C64.4703 28.1825 64.5468 28.9264 64.3144 29.6252" stroke="#292727" stroke-width="7" stroke-linecap="round"/>
</svg>