<svg width="288" height="189" viewBox="0 0 288 189" fill="none" xmlns="http://www.w3.org/2000/svg">
<path d="M-19.7743 174.704C40.6535 187.7 102.917 191.239 164.533 187.718C186.98 186.433 209.381 185.483 231.675 182.333C248.173 180.007 289.016 177.238 287.981 153.101C287.585 143.815 280.456 135.063 270.574 134.946C262.249 134.846 254.392 141.661 253.258 149.96C253.348 141.444 253.42 132.746 250.837 124.628C240.72 92.925 198.554 100.971 185.864 126.194C188.132 122.981 187.007 117.895 183.596 115.949C180.185 114.003 175.27 115.641 173.695 119.243C176.422 96.6266 178.411 73.3491 172.597 51.3296C166.783 29.3102 151.69 8.48537 130.008 1.86053C84.9528 -11.9141 57.1419 54.1443 57.4119 89.7845C49.8787 74.4532 32.0582 64.9504 15.2097 67.2854C-34.6877 74.1908 -24.6254 140.276 -19.7743 174.695V174.704Z" fill="#D5E7F2"/>
</svg>
