<svg width="458" height="285" viewBox="0 0 458 285" fill="none" xmlns="http://www.w3.org/2000/svg">
<path d="M712.502 192.59C710.19 171.6 707.724 150.068 697.973 131.338C688.222 112.609 669.418 97.07 648.315 97.5092C627.212 97.9483 607.284 119.519 613.574 139.67C610.384 107.119 602.415 74.2072 583.921 47.2239C565.427 20.2536 535 0 502.286 0C464.562 0 430.892 26.6216 411.817 59.172C392.742 91.7224 385.548 129.659 378.677 166.756C381.209 136.699 355.198 107.274 325.067 106.099C294.937 104.923 266.705 132.217 266.873 162.377C265.323 152.096 255.172 143.868 244.788 144.475C234.405 145.082 225.287 154.434 224.938 164.832C215.626 127.864 184.372 97.3154 147.203 88.8678C110.034 80.4202 68.6416 94.435 44.2711 123.756C19.8878 153.064 13.6499 196.323 28.7216 231.34C19.0612 225.334 0.85116 243.017 0.0504349 254.358C-0.75029 265.699 8.09643 275.942 18.5446 280.463C28.9928 284.984 40.7324 285.023 52.0976 284.997C230.866 284.519 409.647 284.054 588.416 283.576C618.262 283.499 649.193 283.189 676.25 270.595C703.307 258.001 715.757 222.26 712.489 192.59H712.502Z" fill="#D5E7F2"/>
</svg>
