<svg width="286" height="378" viewBox="0 0 286 378" fill="none" xmlns="http://www.w3.org/2000/svg">
<path d="M259.03 0C259.03 0 267.28 25.31 248.93 37.31C239.75 30.96 259.03 0 259.03 0Z" fill="#193D8E"/>
<path d="M-44.67 6.06934H270.7V20.9593H-44.67V6.06934Z" fill="#F2C744"/>
<g style="mix-blend-mode:multiply" opacity="0.5">
<path d="M261.24 13.5093C261.24 16.3093 261.72 18.8993 262.51 20.9593H270.7V6.06934H262.51C261.71 8.12934 261.24 10.7093 261.24 13.5093Z" fill="#F2C744"/>
</g>
<path d="M270.7 25.7695C267.281 25.7695 264.51 20.285 264.51 13.5195C264.51 6.75404 267.281 1.26953 270.7 1.26953C274.119 1.26953 276.89 6.75404 276.89 13.5195C276.89 20.285 274.119 25.7695 270.7 25.7695Z" fill="#F2C744"/>
<path d="M270.7 1.26953H279.81V25.7695H270.7V1.26953Z" fill="#F2C744"/>
<path d="M279.81 25.7695C276.391 25.7695 273.62 20.285 273.62 13.5195C273.62 6.75404 276.391 1.26953 279.81 1.26953C283.229 1.26953 286 6.75404 286 13.5195C286 20.285 283.229 25.7695 279.81 25.7695Z" fill="#733B0A"/>
<path d="M39.79 129.33C109.71 129.33 179.62 129.33 249.54 129.33C244.01 86.22 243.58 43.11 259.38 0H49.63C33.84 43.11 34.26 86.22 39.8 129.33H39.79Z" fill="#265CA9"/>
<path d="M219.58 129.33C229.2 204.23 254.27 279.13 236.57 354.03C244.68 361.99 252.31 369.94 259.38 377.9C289.73 295.04 260.19 212.19 249.55 129.33H219.58Z" fill="#CD2027"/>
<path d="M189.62 129.33C198.22 196.27 219.16 263.22 210.87 330.16C219.87 338.12 228.46 346.07 236.57 354.03C254.27 279.13 229.2 204.23 219.58 129.33H189.62Z" fill="#F3F4F5"/>
<path d="M159.65 129.33C167.23 188.31 184.38 247.3 182.69 306.28C192.45 314.24 201.87 322.2 210.87 330.16C219.15 263.22 198.22 196.27 189.62 129.33H159.65Z" fill="#CD2027"/>
<path d="M129.69 129.33C137.32 188.71 154.65 248.08 152.69 307.46C158.07 303.29 163.35 299.11 168.55 294.94C173.34 298.72 178.05 302.5 182.69 306.28C184.38 247.3 167.23 188.31 159.65 129.33H129.69Z" fill="#F3F4F5"/>
<path d="M99.73 129.33C108.38 196.66 129.51 264 120.83 331.33C131.84 323.37 142.44 315.42 152.69 307.46C154.65 248.08 137.32 188.71 129.69 129.33H99.73Z" fill="#CD2027"/>
<path d="M39.8 129.33C50.44 212.19 79.99 295.04 49.63 377.9H51.1C63.37 370.33 75.14 362.77 86.47 355.2C104.71 279.91 79.43 204.62 69.76 129.33H39.8Z" fill="#CD2027"/>
<path d="M69.76 129.33C79.43 204.62 104.71 279.91 86.47 355.2C98.39 347.24 109.82 339.29 120.83 331.33C129.51 264 108.37 196.66 99.73 129.33H69.76Z" fill="#F3F4F5"/>
<path d="M224.03 17.5703C222.12 20.7903 220.29 24.0103 218.54 27.2303H208.38C210.68 29.2203 213.01 31.2103 215.37 33.2003C213.71 36.4203 212.13 39.6403 210.61 42.8603C213.64 40.8703 216.69 38.8803 219.78 36.8903C222.17 38.8803 224.6 40.8703 227.05 42.8603C226.47 39.6403 225.96 36.4203 225.53 33.2003C228.65 31.2103 231.79 29.2203 234.97 27.2303H224.81C224.47 24.0103 224.21 20.7903 224.03 17.5703Z" fill="#F3F4F5"/>
<path d="M186.48 17.5703C184.57 20.7903 182.74 24.0103 180.99 27.2303H170.83C173.13 29.2203 175.46 31.2103 177.82 33.2003C176.16 36.4203 174.58 39.6403 173.06 42.8603C176.09 40.8703 179.14 38.8803 182.23 36.8903C184.63 38.8803 187.05 40.8703 189.5 42.8603C188.92 39.6403 188.41 36.4203 187.98 33.2003C191.1 31.2103 194.24 29.2203 197.42 27.2303H187.26C186.92 24.0103 186.66 20.7903 186.48 17.5703Z" fill="#F3F4F5"/>
<path d="M148.94 17.5703C147.03 20.7903 145.2 24.0103 143.45 27.2303H133.29C135.59 29.2203 137.92 31.2103 140.28 33.2003C138.62 36.4203 137.04 39.6403 135.52 42.8603C138.55 40.8703 141.6 38.8803 144.69 36.8903C147.09 38.8803 149.51 40.8703 151.96 42.8603C151.38 39.6403 150.87 36.4203 150.44 33.2003C153.56 31.2103 156.7 29.2203 159.88 27.2303H149.72C149.38 24.0103 149.12 20.7903 148.94 17.5703Z" fill="#F3F4F5"/>
<path d="M111.39 17.5703C109.48 20.7903 107.65 24.0103 105.9 27.2303H95.74C98.04 29.2203 100.37 31.2103 102.73 33.2003C101.07 36.4203 99.49 39.6403 97.97 42.8603C101 40.8703 104.05 38.8803 107.14 36.8903C109.54 38.8803 111.96 40.8703 114.41 42.8603C113.83 39.6403 113.32 36.4203 112.89 33.2003C116.01 31.2103 119.15 29.2203 122.33 27.2303H112.17C111.83 24.0103 111.57 20.7903 111.39 17.5703Z" fill="#F3F4F5"/>
<path d="M73.84 17.5703C71.93 20.7903 70.1 24.0103 68.35 27.2303H58.19C60.49 29.2203 62.82 31.2103 65.18 33.2003C63.52 36.4203 61.94 39.6403 60.42 42.8603C63.45 40.8703 66.5 38.8803 69.59 36.8903C71.98 38.8803 74.41 40.8703 76.86 42.8603C76.28 39.6403 75.77 36.4203 75.34 33.2003C78.46 31.2103 81.6 29.2203 84.78 27.2303H74.62C74.28 24.0103 74.02 20.7903 73.84 17.5703Z" fill="#F3F4F5"/>
<path d="M216.34 86.4805C215.36 89.7005 214.44 92.9205 213.55 96.1405C210.16 96.1405 206.78 96.1405 203.39 96.1405C206.23 98.1305 209.09 100.12 211.96 102.11C211.13 105.33 210.34 108.55 209.59 111.77C212.15 109.78 214.72 107.79 217.3 105.8C220.19 107.79 223.1 109.78 226.02 111.77C224.68 108.55 223.38 105.33 222.11 102.11C224.72 100.12 227.34 98.1305 229.97 96.1405C226.58 96.1405 223.2 96.1405 219.81 96.1405C218.6 92.9205 217.44 89.7005 216.32 86.4805H216.34Z" fill="#F3F4F5"/>
<path d="M178.8 86.4805C177.82 89.7005 176.9 92.9205 176.01 96.1405C172.62 96.1405 169.24 96.1405 165.85 96.1405C168.69 98.1305 171.55 100.12 174.42 102.11C173.59 105.33 172.8 108.55 172.05 111.77C174.61 109.78 177.18 107.79 179.76 105.8C182.65 107.79 185.56 109.78 188.48 111.77C187.14 108.55 185.84 105.33 184.57 102.11C187.17 100.12 189.8 98.1305 192.43 96.1405C189.04 96.1405 185.66 96.1405 182.27 96.1405C181.06 92.9205 179.9 89.7005 178.78 86.4805H178.8Z" fill="#F3F4F5"/>
<path d="M141.25 86.4805C140.27 89.7005 139.35 92.9205 138.46 96.1405C135.07 96.1405 131.69 96.1405 128.3 96.1405C131.14 98.1305 134 100.12 136.87 102.11C136.04 105.33 135.25 108.55 134.5 111.77C137.06 109.78 139.63 107.79 142.21 105.8C145.1 107.79 148.01 109.78 150.93 111.77C149.59 108.55 148.29 105.33 147.02 102.11C149.63 100.12 152.25 98.1305 154.88 96.1405C151.49 96.1405 148.11 96.1405 144.72 96.1405C143.51 92.9205 142.35 89.7005 141.23 86.4805H141.25Z" fill="#F3F4F5"/>
<path d="M103.71 86.4805C102.73 89.7005 101.81 92.9205 100.92 96.1405C97.53 96.1405 94.15 96.1405 90.76 96.1405C93.6 98.1305 96.46 100.12 99.33 102.11C98.5 105.33 97.71 108.55 96.96 111.77C99.52 109.78 102.09 107.79 104.67 105.8C107.56 107.79 110.47 109.78 113.39 111.77C112.05 108.55 110.75 105.33 109.48 102.11C112.09 100.12 114.71 98.1305 117.34 96.1405C113.95 96.1405 110.57 96.1405 107.18 96.1405C105.97 92.9205 104.81 89.7005 103.69 86.4805H103.71Z" fill="#F3F4F5"/>
<path d="M66.16 86.4805C65.18 89.7005 64.26 92.9205 63.37 96.1405C59.98 96.1405 56.6001 96.1405 53.2101 96.1405C56.0501 98.1305 58.91 100.12 61.78 102.11C60.95 105.33 60.16 108.55 59.41 111.77C61.97 109.78 64.54 107.79 67.12 105.8C70.01 107.79 72.92 109.78 75.84 111.77C74.5 108.55 73.2 105.33 71.93 102.11C74.54 100.12 77.16 98.1305 79.79 96.1405C76.4 96.1405 73.0201 96.1405 69.6301 96.1405C68.4201 92.9205 67.26 89.7005 66.14 86.4805H66.16Z" fill="#F3F4F5"/>
<path d="M198.91 52.0195C197.52 55.2395 196.2 58.4595 194.95 61.6795H184.79C187.4 63.6695 190.03 65.6595 192.68 67.6495C191.49 70.8695 190.37 74.0895 189.29 77.3095C192.05 75.3195 194.82 73.3295 197.62 71.3395C200.3 73.3295 203 75.3195 205.72 77.3095C204.7 74.0895 203.74 70.8695 202.83 67.6495C205.65 65.6595 208.5 63.6695 211.37 61.6795H201.21C200.38 58.4595 199.6 55.2395 198.9 52.0195H198.91Z" fill="#F3F4F5"/>
<path d="M161.36 52.0195C159.97 55.2395 158.65 58.4595 157.4 61.6795H147.24C149.85 63.6695 152.48 65.6595 155.13 67.6495C153.94 70.8695 152.82 74.0895 151.74 77.3095C154.5 75.3195 157.27 73.3295 160.07 71.3395C162.75 73.3295 165.45 75.3195 168.17 77.3095C167.15 74.0895 166.19 70.8695 165.28 67.6495C168.1 65.6595 170.95 63.6695 173.82 61.6795H163.66C162.83 58.4595 162.05 55.2395 161.35 52.0195H161.36Z" fill="#F3F4F5"/>
<path d="M123.82 52.0195C122.43 55.2395 121.11 58.4595 119.86 61.6795H109.7C112.31 63.6695 114.94 65.6595 117.59 67.6495C116.4 70.8695 115.28 74.0895 114.2 77.3095C116.96 75.3195 119.73 73.3295 122.53 71.3395C125.21 73.3295 127.91 75.3195 130.63 77.3095C129.61 74.0895 128.65 70.8695 127.74 67.6495C130.56 65.6595 133.41 63.6695 136.28 61.6795H126.12C125.29 58.4595 124.51 55.2395 123.81 52.0195H123.82Z" fill="#F3F4F5"/>
<path d="M86.27 52.0195C84.88 55.2395 83.56 58.4595 82.31 61.6795H72.15C74.76 63.6695 77.39 65.6595 80.04 67.6495C78.85 70.8695 77.73 74.0895 76.65 77.3095C79.41 75.3195 82.18 73.3295 84.98 71.3395C87.66 73.3295 90.36 75.3195 93.08 77.3095C92.06 74.0895 91.1 70.8695 90.19 67.6495C93.01 65.6595 95.86 63.6695 98.73 61.6795H88.57C87.74 58.4595 86.96 55.2395 86.26 52.0195H86.27Z" fill="#F3F4F5"/>
</svg>