<svg width="286" height="378" viewBox="0 0 286 378" fill="none" xmlns="http://www.w3.org/2000/svg">
<path d="M259.03 0C259.03 0 267.28 25.31 248.93 37.31C239.75 30.96 259.03 0 259.03 0Z" fill="#193D8E"/>
<path d="M-44.67 6.07007H270.7V20.9601H-44.67V6.07007Z" fill="#F2C744"/>
<g style="mix-blend-mode:multiply" opacity="0.5">
<path d="M261.24 13.5101C261.24 16.3101 261.72 18.9001 262.51 20.9601H270.7V6.07007H262.51C261.71 8.13007 261.24 10.7101 261.24 13.5101Z" fill="#F2C744"/>
</g>
<path d="M270.7 25.77C267.281 25.77 264.51 20.2855 264.51 13.52C264.51 6.75453 267.281 1.27002 270.7 1.27002C274.119 1.27002 276.89 6.75453 276.89 13.52C276.89 20.2855 274.119 25.77 270.7 25.77Z" fill="#F2C744"/>
<path d="M270.7 1.27002H279.81V25.77H270.7V1.27002Z" fill="#F2C744"/>
<path d="M279.81 25.77C276.391 25.77 273.62 20.2855 273.62 13.52C273.62 6.75453 276.391 1.27002 279.81 1.27002C283.229 1.27002 286 6.75453 286 13.52C286 20.2855 283.229 25.77 279.81 25.77Z" fill="#733B0A"/>
<path d="M39.79 129.33C109.71 129.33 179.62 129.33 249.54 129.33C244.01 86.22 243.58 43.11 259.38 0H49.63C33.84 43.11 34.26 86.22 39.8 129.33H39.79Z" fill="#265CA9"/>
<path d="M219.58 129.33C229.2 204.23 254.27 279.13 236.57 354.03C244.68 361.99 252.31 369.94 259.38 377.9C289.73 295.04 260.19 212.19 249.55 129.33H219.58Z" fill="#CD2027"/>
<path d="M189.62 129.33C198.22 196.27 219.16 263.22 210.87 330.16C219.87 338.12 228.46 346.07 236.57 354.03C254.27 279.13 229.2 204.23 219.58 129.33H189.62Z" fill="#F3F4F5"/>
<path d="M159.65 129.33C167.23 188.31 184.38 247.3 182.69 306.28C192.45 314.24 201.87 322.2 210.87 330.16C219.15 263.22 198.22 196.27 189.62 129.33H159.65Z" fill="#CD2027"/>
<path d="M129.69 129.33C137.32 188.71 154.65 248.08 152.69 307.46C158.07 303.29 163.35 299.11 168.55 294.94C173.34 298.72 178.05 302.5 182.69 306.28C184.38 247.3 167.23 188.31 159.65 129.33H129.69Z" fill="#F3F4F5"/>
<path d="M99.73 129.33C108.38 196.66 129.51 264 120.83 331.33C131.84 323.37 142.44 315.42 152.69 307.46C154.65 248.08 137.32 188.71 129.69 129.33H99.73Z" fill="#CD2027"/>
<path d="M39.8 129.33C50.44 212.19 79.99 295.04 49.63 377.9H51.1C63.37 370.33 75.14 362.77 86.47 355.2C104.71 279.91 79.43 204.62 69.76 129.33H39.8Z" fill="#CD2027"/>
<path d="M69.76 129.33C79.43 204.62 104.71 279.91 86.47 355.2C98.39 347.24 109.82 339.29 120.83 331.33C129.51 264 108.37 196.66 99.73 129.33H69.76Z" fill="#F3F4F5"/>
<path d="M224.03 17.5699C222.12 20.7899 220.29 24.0099 218.54 27.2299H208.38C210.68 29.2199 213.01 31.2099 215.37 33.1999C213.71 36.4199 212.13 39.6399 210.61 42.8599C213.64 40.8699 216.69 38.8799 219.78 36.8899C222.17 38.8799 224.6 40.8699 227.05 42.8599C226.47 39.6399 225.96 36.4199 225.53 33.1999C228.65 31.2099 231.79 29.2199 234.97 27.2299H224.81C224.47 24.0099 224.21 20.7899 224.03 17.5699Z" fill="#F3F4F5"/>
<path d="M186.48 17.5699C184.57 20.7899 182.74 24.0099 180.99 27.2299H170.83C173.13 29.2199 175.46 31.2099 177.82 33.1999C176.16 36.4199 174.58 39.6399 173.06 42.8599C176.09 40.8699 179.14 38.8799 182.23 36.8899C184.63 38.8799 187.05 40.8699 189.5 42.8599C188.92 39.6399 188.41 36.4199 187.98 33.1999C191.1 31.2099 194.24 29.2199 197.42 27.2299H187.26C186.92 24.0099 186.66 20.7899 186.48 17.5699Z" fill="#F3F4F5"/>
<path d="M148.94 17.5699C147.03 20.7899 145.2 24.0099 143.45 27.2299H133.29C135.59 29.2199 137.92 31.2099 140.28 33.1999C138.62 36.4199 137.04 39.6399 135.52 42.8599C138.55 40.8699 141.6 38.8799 144.69 36.8899C147.09 38.8799 149.51 40.8699 151.96 42.8599C151.38 39.6399 150.87 36.4199 150.44 33.1999C153.56 31.2099 156.7 29.2199 159.88 27.2299H149.72C149.38 24.0099 149.12 20.7899 148.94 17.5699Z" fill="#F3F4F5"/>
<path d="M111.39 17.5699C109.48 20.7899 107.65 24.0099 105.9 27.2299H95.74C98.04 29.2199 100.37 31.2099 102.73 33.1999C101.07 36.4199 99.49 39.6399 97.97 42.8599C101 40.8699 104.05 38.8799 107.14 36.8899C109.54 38.8799 111.96 40.8699 114.41 42.8599C113.83 39.6399 113.32 36.4199 112.89 33.1999C116.01 31.2099 119.15 29.2199 122.33 27.2299H112.17C111.83 24.0099 111.57 20.7899 111.39 17.5699Z" fill="#F3F4F5"/>
<path d="M73.84 17.5699C71.93 20.7899 70.1 24.0099 68.35 27.2299H58.19C60.49 29.2199 62.82 31.2099 65.18 33.1999C63.52 36.4199 61.94 39.6399 60.42 42.8599C63.45 40.8699 66.5 38.8799 69.59 36.8899C71.98 38.8799 74.41 40.8699 76.86 42.8599C76.28 39.6399 75.77 36.4199 75.34 33.1999C78.46 31.2099 81.6 29.2199 84.78 27.2299H74.62C74.28 24.0099 74.02 20.7899 73.84 17.5699Z" fill="#F3F4F5"/>
<path d="M216.34 86.48C215.36 89.7 214.44 92.92 213.55 96.14C210.16 96.14 206.78 96.14 203.39 96.14C206.23 98.13 209.09 100.12 211.96 102.11C211.13 105.33 210.34 108.55 209.59 111.77C212.15 109.78 214.72 107.79 217.3 105.8C220.19 107.79 223.1 109.78 226.02 111.77C224.68 108.55 223.38 105.33 222.11 102.11C224.72 100.12 227.34 98.13 229.97 96.14C226.58 96.14 223.2 96.14 219.81 96.14C218.6 92.92 217.44 89.7 216.32 86.48H216.34Z" fill="#F3F4F5"/>
<path d="M178.8 86.48C177.82 89.7 176.9 92.92 176.01 96.14C172.62 96.14 169.24 96.14 165.85 96.14C168.69 98.13 171.55 100.12 174.42 102.11C173.59 105.33 172.8 108.55 172.05 111.77C174.61 109.78 177.18 107.79 179.76 105.8C182.65 107.79 185.56 109.78 188.48 111.77C187.14 108.55 185.84 105.33 184.57 102.11C187.17 100.12 189.8 98.13 192.43 96.14C189.04 96.14 185.66 96.14 182.27 96.14C181.06 92.92 179.9 89.7 178.78 86.48H178.8Z" fill="#F3F4F5"/>
<path d="M141.25 86.48C140.27 89.7 139.35 92.92 138.46 96.14C135.07 96.14 131.69 96.14 128.3 96.14C131.14 98.13 134 100.12 136.87 102.11C136.04 105.33 135.25 108.55 134.5 111.77C137.06 109.78 139.63 107.79 142.21 105.8C145.1 107.79 148.01 109.78 150.93 111.77C149.59 108.55 148.29 105.33 147.02 102.11C149.63 100.12 152.25 98.13 154.88 96.14C151.49 96.14 148.11 96.14 144.72 96.14C143.51 92.92 142.35 89.7 141.23 86.48H141.25Z" fill="#F3F4F5"/>
<path d="M103.71 86.48C102.73 89.7 101.81 92.92 100.92 96.14C97.53 96.14 94.15 96.14 90.76 96.14C93.6 98.13 96.46 100.12 99.33 102.11C98.5 105.33 97.71 108.55 96.96 111.77C99.52 109.78 102.09 107.79 104.67 105.8C107.56 107.79 110.47 109.78 113.39 111.77C112.05 108.55 110.75 105.33 109.48 102.11C112.09 100.12 114.71 98.13 117.34 96.14C113.95 96.14 110.57 96.14 107.18 96.14C105.97 92.92 104.81 89.7 103.69 86.48H103.71Z" fill="#F3F4F5"/>
<path d="M66.16 86.48C65.18 89.7 64.26 92.92 63.37 96.14C59.98 96.14 56.6001 96.14 53.2101 96.14C56.0501 98.13 58.91 100.12 61.78 102.11C60.95 105.33 60.16 108.55 59.41 111.77C61.97 109.78 64.54 107.79 67.12 105.8C70.01 107.79 72.92 109.78 75.84 111.77C74.5 108.55 73.2 105.33 71.93 102.11C74.54 100.12 77.16 98.13 79.79 96.14C76.4 96.14 73.0201 96.14 69.6301 96.14C68.4201 92.92 67.26 89.7 66.14 86.48H66.16Z" fill="#F3F4F5"/>
<path d="M198.91 52.02C197.52 55.24 196.2 58.46 194.95 61.68H184.79C187.4 63.67 190.03 65.66 192.68 67.65C191.49 70.87 190.37 74.09 189.29 77.31C192.05 75.32 194.82 73.33 197.62 71.34C200.3 73.33 203 75.32 205.72 77.31C204.7 74.09 203.74 70.87 202.83 67.65C205.65 65.66 208.5 63.67 211.37 61.68H201.21C200.38 58.46 199.6 55.24 198.9 52.02H198.91Z" fill="#F3F4F5"/>
<path d="M161.36 52.02C159.97 55.24 158.65 58.46 157.4 61.68H147.24C149.85 63.67 152.48 65.66 155.13 67.65C153.94 70.87 152.82 74.09 151.74 77.31C154.5 75.32 157.27 73.33 160.07 71.34C162.75 73.33 165.45 75.32 168.17 77.31C167.15 74.09 166.19 70.87 165.28 67.65C168.1 65.66 170.95 63.67 173.82 61.68H163.66C162.83 58.46 162.05 55.24 161.35 52.02H161.36Z" fill="#F3F4F5"/>
<path d="M123.82 52.02C122.43 55.24 121.11 58.46 119.86 61.68H109.7C112.31 63.67 114.94 65.66 117.59 67.65C116.4 70.87 115.28 74.09 114.2 77.31C116.96 75.32 119.73 73.33 122.53 71.34C125.21 73.33 127.91 75.32 130.63 77.31C129.61 74.09 128.65 70.87 127.74 67.65C130.56 65.66 133.41 63.67 136.28 61.68H126.12C125.29 58.46 124.51 55.24 123.81 52.02H123.82Z" fill="#F3F4F5"/>
<path d="M86.27 52.02C84.88 55.24 83.56 58.46 82.31 61.68H72.15C74.76 63.67 77.39 65.66 80.04 67.65C78.85 70.87 77.73 74.09 76.65 77.31C79.41 75.32 82.18 73.33 84.98 71.34C87.66 73.33 90.36 75.32 93.08 77.31C92.06 74.09 91.1 70.87 90.19 67.65C93.01 65.66 95.86 63.67 98.73 61.68H88.57C87.74 58.46 86.96 55.24 86.26 52.02H86.27Z" fill="#F3F4F5"/>
</svg>